Helius-Medium.ufo
<glyph name="exclam" format="2">
  <advance width="216"/>
  <unicode hex="0021"/>
  <outline>
    <contour>
      <point x="164" y="640" type="line"/>
      <point x="164" y="421" type="line" smooth="yes"/>
      <point x="164" y="401"/>
      <point x="163" y="387"/>
      <point x="162" y="372" type="curve" smooth="yes"/>
      <point x="161" y="363"/>
      <point x="160" y="355"/>
      <point x="159" y="344" type="curve" smooth="yes"/>
      <point x="149" y="179" type="line"/>
      <point x="69" y="179" type="line"/>
      <point x="58" y="344" type="line" smooth="yes"/>
      <point x="57" y="355"/>
      <point x="56" y="363"/>
      <point x="56" y="372" type="curve" smooth="yes"/>
      <point x="54" y="387"/>
      <point x="53" y="401"/>
      <point x="53" y="421" type="curve" smooth="yes"/>
      <point x="53" y="640" type="line"/>
    </contour>
    <contour>
      <point x="164" y="0" type="line"/>
      <point x="53" y="0" type="line"/>
      <point x="53" y="126" type="line"/>
      <point x="164" y="126" type="line"/>
    </contour>
  </outline>
</glyph>
<glyph name="numbersign" format="2">
  <advance width="522"/>
  <unicode hex="0023"/>
  <outline>
    <contour>
      <point x="484" y="345" type="line"/>
      <point x="403" y="345" type="line"/>
      <point x="391" y="260" type="line"/>
      <point x="459" y="260" type="line"/>
      <point x="459" y="167" type="line"/>
      <point x="378" y="167" type="line"/>
      <point x="353" y="0" type="line"/>
      <point x="271" y="0" type="line"/>
      <point x="294" y="167" type="line"/>
      <point x="200" y="167" type="line"/>
      <point x="175" y="0" type="line"/>
      <point x="93" y="0" type="line"/>
      <point x="116" y="167" type="line"/>
      <point x="39" y="167" type="line"/>
      <point x="39" y="260" type="line"/>
      <point x="130" y="260" type="line"/>
      <point x="142" y="345" type="line"/>
      <point x="63" y="345" type="line"/>
      <point x="63" y="439" type="line"/>
      <point x="156" y="439" type="line"/>
      <point x="180" y="611" type="line"/>
      <point x="264" y="611" type="line"/>
      <point x="238" y="439" type="line"/>
      <point x="333" y="439" type="line"/>
      <point x="358" y="611" type="line"/>
      <point x="442" y="611" type="line"/>
      <point x="416" y="439" type="line"/>
      <point x="484" y="439" type="line"/>
    </contour>
    <contour>
      <point x="308" y="260" type="line"/>
      <point x="320" y="345" type="line"/>
      <point x="225" y="345" type="line"/>
      <point x="213" y="260" type="line"/>
    </contour>
  </outline>
</glyph>
<glyph name="dollar" format="2">
  <advance width="484"/>
  <unicode hex="0024"/>
  <outline>
    <contour>
      <point x="283" y="317" type="line"/>
      <point x="369" y="295"/>
      <point x="446" y="260"/>
      <point x="446" y="159" type="curve" smooth="yes"/>
      <point x="446" y="63"/>
      <point x="373" y="7"/>
      <point x="283" y="-4" type="curve"/>
      <point x="283" y="-81" type="line"/>
      <point x="201" y="-81" type="line"/>
      <point x="201" y="-1" type="line"/>
      <point x="128" y="11"/>
      <point x="39" y="35"/>
      <point x="39" y="193" type="curve"/>
      <point x="39" y="194" type="line"/>
      <point x="40" y="213" type="line"/>
      <point x="120" y="206" type="line"/>
      <point x="120" y="189" type="line" smooth="yes"/>
      <point x="120" y="129"/>
      <point x="159" y="104"/>
      <point x="201" y="94" type="curve"/>
      <point x="201" y="242" type="line"/>
      <point x="125" y="263"/>
      <point x="55" y="303"/>
      <point x="55" y="390" type="curve" smooth="yes"/>
      <point x="55" y="475"/>
      <point x="123" y="523"/>
      <point x="201" y="534" type="curve"/>
      <point x="201" y="611" type="line"/>
      <point x="283" y="611" type="line"/>
      <point x="283" y="532" type="line"/>
      <point x="343" y="521"/>
      <point x="433" y="480"/>
      <point x="433" y="354" type="curve"/>
      <point x="433" y="336" type="line"/>
      <point x="351" y="336" type="line"/>
      <point x="351" y="354" type="line"/>
      <point x="351" y="405"/>
      <point x="319" y="428"/>
      <point x="283" y="437" type="curve"/>
    </contour>
    <contour>
      <point x="201" y="339" type="curve"/>
      <point x="201" y="440" type="line"/>
      <point x="176" y="435"/>
      <point x="137" y="419"/>
      <point x="137" y="389" type="curve" smooth="yes"/>
      <point x="137" y="360"/>
      <point x="178" y="346"/>
    </contour>
    <contour>
      <point x="283" y="90" type="line"/>
      <point x="319" y="96"/>
      <point x="363" y="116"/>
      <point x="363" y="157" type="curve" smooth="yes"/>
      <point x="363" y="198"/>
      <point x="317" y="213"/>
      <point x="283" y="221" type="curve"/>
    </contour>
  </outline>
</glyph>
<glyph name="percent" format="2">
  <advance width="630"/>
  <unicode hex="0025"/>
  <outline>
    <contour>
      <point x="341" y="129" type="curve" smooth="yes"/>
      <point x="341" y="218"/>
      <point x="400" y="273"/>
      <point x="470" y="273" type="curve" smooth="yes"/>
      <point x="540" y="273"/>
      <point x="599" y="219"/>
      <point x="599" y="129" type="curve" smooth="yes"/>
      <point x="599" y="38"/>
      <point x="540" y="-15"/>
      <point x="470" y="-15" type="curve" smooth="yes"/>
      <point x="400" y="-15"/>
      <point x="341" y="39"/>
    </contour>
    <contour>
      <point x="424" y="129" type="curve" smooth="yes"/>
      <point x="424" y="93"/>
      <point x="440" y="71"/>
      <point x="470" y="71" type="curve" smooth="yes"/>
      <point x="500" y="71"/>
      <point x="517" y="93"/>
      <point x="517" y="129" type="curve" smooth="yes"/>
      <point x="517" y="165"/>
      <point x="500" y="187"/>
      <point x="470" y="187" type="curve" smooth="yes"/>
      <point x="440" y="187"/>
      <point x="424" y="164"/>
    </contour>
    <contour>
      <point x="31" y="399" type="curve" smooth="yes"/>
      <point x="31" y="488"/>
      <point x="91" y="543"/>
      <point x="161" y="543" type="curve" smooth="yes"/>
      <point x="231" y="543"/>
      <point x="290" y="489"/>
      <point x="290" y="399" type="curve" smooth="yes"/>
      <point x="290" y="308"/>
      <point x="231" y="254"/>
      <point x="161" y="254" type="curve" smooth="yes"/>
      <point x="91" y="254"/>
      <point x="31" y="309"/>
    </contour>
    <contour>
      <point x="114" y="399" type="curve" smooth="yes"/>
      <point x="114" y="363"/>
      <point x="131" y="340"/>
      <point x="161" y="340" type="curve" smooth="yes"/>
      <point x="191" y="340"/>
      <point x="208" y="363"/>
      <point x="208" y="399" type="curve" smooth="yes"/>
      <point x="208" y="434"/>
      <point x="191" y="457"/>
      <point x="161" y="457" type="curve" smooth="yes"/>
      <point x="131" y="457"/>
      <point x="114" y="434"/>
    </contour>
    <contour>
      <point x="437" y="528" type="line"/>
      <point x="537" y="528" type="line"/>
      <point x="196" y="0" type="line"/>
      <point x="96" y="0" type="line"/>
    </contour>
  </outline>
</glyph>
<glyph name="ampersand" format="2">
  <advance width="619"/>
  <unicode hex="0026"/>
  <outline>
    <contour>
      <point x="401" y="187" type="line"/>
      <point x="415" y="207"/>
      <point x="429" y="232"/>
      <point x="437" y="256" type="curve" smooth="yes"/>
      <point x="440" y="266" type="line"/>
      <point x="528" y="266" type="line"/>
      <point x="520" y="240" type="line" smooth="yes"/>
      <point x="511" y="212"/>
      <point x="485" y="153"/>
      <point x="463" y="123" type="curve"/>
      <point x="581" y="0" type="line"/>
      <point x="458" y="0" type="line"/>
      <point x="403" y="58" type="line"/>
      <point x="356" y="19"/>
      <point x="303" y="0"/>
      <point x="257" y="0" type="curve" smooth="yes"/>
      <point x="186" y="0"/>
      <point x="39" y="45"/>
      <point x="39" y="195" type="curve" smooth="yes"/>
      <point x="39" y="274"/>
      <point x="80" y="326"/>
      <point x="116" y="359" type="curve"/>
      <point x="97" y="384"/>
      <point x="80" y="420"/>
      <point x="80" y="466" type="curve" smooth="yes"/>
      <point x="80" y="576"/>
      <point x="178" y="611"/>
      <point x="225" y="611" type="curve" smooth="yes"/>
      <point x="275" y="611"/>
      <point x="369" y="574"/>
      <point x="369" y="458" type="curve" smooth="yes"/>
      <point x="369" y="440" type="line"/>
      <point x="287" y="440" type="line"/>
      <point x="287" y="458" type="line" smooth="yes"/>
      <point x="287" y="496"/>
      <point x="255" y="518"/>
      <point x="225" y="518" type="curve" smooth="yes"/>
      <point x="195" y="518"/>
      <point x="162" y="497"/>
      <point x="162" y="464" type="curve" smooth="yes"/>
      <point x="162" y="442"/>
      <point x="179" y="417"/>
      <point x="196" y="399" type="curve"/>
    </contour>
    <contour>
      <point x="341" y="123" type="curve"/>
      <point x="177" y="293" type="line"/>
      <point x="149" y="271"/>
      <point x="121" y="239"/>
      <point x="121" y="197" type="curve" smooth="yes"/>
      <point x="121" y="131"/>
      <point x="192" y="93"/>
      <point x="252" y="93" type="curve" smooth="yes"/>
      <point x="282" y="93"/>
      <point x="312" y="103"/>
    </contour>
  </outline>
</glyph>
<glyph name="quotesingle" format="2">
  <advance width="205"/>
  <unicode hex="0027"/>
  <outline>
    <contour>
      <point x="81" y="423" type="line"/>
      <point x="78" y="429" type="line" smooth="yes"/>
      <point x="53" y="472"/>
      <point x="18" y="554"/>
      <point x="18" y="619" type="curve"/>
      <point x="18" y="637" type="line"/>
      <point x="100" y="637" type="line"/>
      <point x="100" y="619" type="line" smooth="yes"/>
      <point x="100" y="577"/>
      <point x="139" y="484"/>
      <point x="162" y="454" type="curve" smooth="yes"/>
      <point x="188" y="423" type="line"/>
    </contour>
  </outline>
</glyph>
<glyph name="parenleft" format="2">
  <advance width="266"/>
  <unicode hex="0028"/>
  <outline>
    <contour>
      <point x="114" y="305" type="curve" smooth="yes"/>
      <point x="114" y="168"/>
      <point x="164" y="46"/>
      <point x="229" y="-49" type="curve" smooth="yes"/>
      <point x="249" y="-80" type="line"/>
      <point x="151" y="-80" type="line"/>
      <point x="148" y="-75" type="line" smooth="yes"/>
      <point x="83" y="26"/>
      <point x="31" y="157"/>
      <point x="31" y="305" type="curve" smooth="yes"/>
      <point x="31" y="453"/>
      <point x="83" y="583"/>
      <point x="148" y="683" type="curve" smooth="yes"/>
      <point x="151" y="689" type="line"/>
      <point x="248" y="689" type="line"/>
      <point x="228" y="658" type="line" smooth="yes"/>
      <point x="164" y="562"/>
      <point x="114" y="442"/>
    </contour>
  </outline>
</glyph>
<glyph name="parenright" format="2">
  <advance width="266"/>
  <unicode hex="0029"/>
  <outline>
    <contour>
      <point x="116" y="688" type="line"/>
      <point x="120" y="682" type="line" smooth="yes"/>
      <point x="184" y="582"/>
      <point x="235" y="452"/>
      <point x="235" y="304" type="curve" smooth="yes"/>
      <point x="235" y="156"/>
      <point x="184" y="25"/>
      <point x="120" y="-76" type="curve" smooth="yes"/>
      <point x="116" y="-81" type="line"/>
      <point x="18" y="-81" type="line"/>
      <point x="39" y="-50" type="line" smooth="yes"/>
      <point x="103" y="45"/>
      <point x="153" y="167"/>
      <point x="153" y="304" type="curve" smooth="yes"/>
      <point x="153" y="441"/>
      <point x="104" y="561"/>
      <point x="40" y="657" type="curve" smooth="yes"/>
      <point x="19" y="688" type="line"/>
    </contour>
  </outline>
</glyph>
<glyph name="asterisk" format="2">
  <advance width="438"/>
  <unicode hex="002A"/>
  <outline>
    <contour>
      <point x="292" y="328" type="line"/>
      <point x="360" y="237" type="line"/>
      <point x="289" y="188" type="line"/>
      <point x="219" y="281" type="line"/>
      <point x="149" y="188" type="line"/>
      <point x="79" y="237" type="line"/>
      <point x="146" y="328" type="line"/>
      <point x="39" y="363" type="line"/>
      <point x="67" y="451" type="line"/>
      <point x="178" y="415" type="line"/>
      <point x="178" y="530" type="line"/>
      <point x="260" y="530" type="line"/>
      <point x="260" y="415" type="line"/>
      <point x="371" y="451" type="line"/>
      <point x="400" y="363" type="line"/>
    </contour>
  </outline>
</glyph>
<glyph name="plus" format="2">
  <advance width="410"/>
  <unicode hex="002B"/>
  <outline>
    <contour>
      <point x="393" y="219" type="line"/>
      <point x="247" y="219" type="line"/>
      <point x="247" y="75" type="line"/>
      <point x="165" y="75" type="line"/>
      <point x="165" y="219" type="line"/>
      <point x="18" y="219" type="line"/>
      <point x="18" y="312" type="line"/>
      <point x="165" y="312" type="line"/>
      <point x="165" y="455" type="line"/>
      <point x="247" y="455" type="line"/>
      <point x="247" y="312" type="line"/>
      <point x="393" y="312" type="line"/>
    </contour>
  </outline>
</glyph>
<glyph name="comma" format="2">
  <advance width="205"/>
  <unicode hex="002C"/>
  <outline>
    <contour>
      <point x="18" y="-81" type="line"/>
      <point x="43" y="-49" type="line" smooth="yes"/>
      <point x="67" y="-20"/>
      <point x="105" y="74"/>
      <point x="105" y="116" type="curve" smooth="yes"/>
      <point x="105" y="134" type="line"/>
      <point x="188" y="134" type="line"/>
      <point x="188" y="116" type="line"/>
      <point x="188" y="48"/>
      <point x="153" y="-30"/>
      <point x="128" y="-75" type="curve" smooth="yes"/>
      <point x="125" y="-81" type="line"/>
    </contour>
  </outline>
</glyph>
<glyph name="hyphen" format="2">
  <advance width="225"/>
  <unicode hex="002D"/>
  <outline>
    <contour>
      <point x="208" y="312" type="line"/>
      <point x="18" y="312" type="line"/>
      <point x="18" y="405" type="line"/>
      <point x="208" y="405" type="line"/>
    </contour>
  </outline>
</glyph>
<glyph name="period" format="2">
  <advance width="146"/>
  <unicode hex="002E"/>
  <outline>
    <contour>
      <point x="129" y="0" type="line"/>
      <point x="18" y="0" type="line"/>
      <point x="18" y="126" type="line"/>
      <point x="129" y="126" type="line"/>
    </contour>
  </outline>
</glyph>
<glyph name="slash" format="2">
  <advance width="531"/>
  <unicode hex="002F"/>
  <outline>
    <contour>
      <point x="514" y="688" type="line"/>
      <point x="111" y="-157" type="line"/>
      <point x="18" y="-157" type="line"/>
      <point x="420" y="688" type="line"/>
    </contour>
  </outline>
</glyph>
<glyph name="zero" format="2">
  <advance width="496"/>
  <unicode hex="0030"/>
  <outline>
    <contour>
      <point x="114" y="305" type="curve" smooth="yes"/>
      <point x="114" y="178"/>
      <point x="164" y="87"/>
      <point x="248" y="87" type="curve" smooth="yes"/>
      <point x="332" y="87"/>
      <point x="383" y="179"/>
      <point x="383" y="305" type="curve" smooth="yes"/>
      <point x="383" y="431"/>
      <point x="332" y="522"/>
      <point x="248" y="522" type="curve" smooth="yes"/>
      <point x="165" y="522"/>
      <point x="114" y="431"/>
    </contour>
    <contour>
      <point x="31" y="304" type="curve" smooth="yes"/>
      <point x="31" y="499"/>
      <point x="126" y="615"/>
      <point x="248" y="615" type="curve" smooth="yes"/>
      <point x="369" y="615"/>
      <point x="465" y="500"/>
      <point x="465" y="305" type="curve" smooth="yes"/>
      <point x="465" y="110"/>
      <point x="370" y="-6"/>
      <point x="248" y="-6" type="curve" smooth="yes"/>
      <point x="127" y="-6"/>
      <point x="31" y="109"/>
    </contour>
  </outline>
</glyph>
<glyph name="one" format="2">
  <advance width="318"/>
  <unicode hex="0031"/>
  <outline>
    <contour>
      <point x="259" y="611" type="line"/>
      <point x="259" y="0" type="line"/>
      <point x="176" y="0" type="line"/>
      <point x="176" y="492" type="line"/>
      <point x="70" y="421" type="line"/>
      <point x="18" y="495" type="line"/>
      <point x="53" y="518" type="line" smooth="yes"/>
      <point x="69" y="529"/>
      <point x="93" y="545"/>
      <point x="116" y="560" type="curve" smooth="yes"/>
      <point x="135" y="573"/>
      <point x="153" y="585"/>
      <point x="167" y="594" type="curve" smooth="yes"/>
      <point x="189" y="609" type="line"/>
      <point x="192" y="611"/>
      <point x="220" y="611"/>
      <point x="232" y="611" type="curve" smooth="yes"/>
      <point x="238" y="611"/>
      <point x="241" y="611"/>
      <point x="243" y="611" type="curve" smooth="yes"/>
      <point x="257" y="611" type="line" smooth="yes"/>
    </contour>
  </outline>
</glyph>
<glyph name="two" format="2">
  <advance width="454"/>
  <unicode hex="0032"/>
  <outline>
    <contour>
      <point x="423" y="93" type="line"/>
      <point x="423" y="0" type="line"/>
      <point x="31" y="0" type="line"/>
      <point x="31" y="73" type="line"/>
      <point x="39" y="80" type="line" smooth="yes"/>
      <point x="101" y="148"/>
      <point x="164" y="216"/>
      <point x="226" y="283" type="curve" smooth="yes"/>
      <point x="235" y="294"/>
      <point x="245" y="304"/>
      <point x="254" y="314" type="curve" smooth="yes"/>
      <point x="274" y="335"/>
      <point x="294" y="356"/>
      <point x="312" y="378" type="curve" smooth="yes"/>
      <point x="326" y="395"/>
      <point x="340" y="413"/>
      <point x="340" y="441" type="curve" smooth="yes"/>
      <point x="340" y="504"/>
      <point x="272" y="530"/>
      <point x="231" y="530" type="curve" smooth="yes"/>
      <point x="176" y="530"/>
      <point x="116" y="485"/>
      <point x="116" y="407" type="curve" smooth="yes"/>
      <point x="116" y="389" type="line"/>
      <point x="34" y="389" type="line"/>
      <point x="34" y="407" type="line" smooth="yes"/>
      <point x="34" y="559"/>
      <point x="152" y="616"/>
      <point x="232" y="616" type="curve" smooth="yes"/>
      <point x="324" y="616"/>
      <point x="422" y="541"/>
      <point x="422" y="436" type="curve" smooth="yes"/>
      <point x="422" y="380"/>
      <point x="395" y="340"/>
      <point x="372" y="313" type="curve" smooth="yes"/>
      <point x="319" y="252"/>
      <point x="264" y="194"/>
      <point x="210" y="135" type="curve" smooth="yes"/>
      <point x="197" y="121"/>
      <point x="183" y="107"/>
      <point x="170" y="93" type="curve"/>
    </contour>
  </outline>
</glyph>
<glyph name="three" format="2">
  <advance width="510"/>
  <unicode hex="0033"/>
  <outline>
    <contour>
      <point x="472" y="186" type="curve" smooth="yes"/>
      <point x="472" y="68"/>
      <point x="372" y="-5"/>
      <point x="268" y="-5" type="curve" smooth="yes"/>
      <point x="188" y="-5"/>
      <point x="39" y="39"/>
      <point x="39" y="206" type="curve" smooth="yes"/>
      <point x="39" y="224" type="line"/>
      <point x="121" y="224" type="line"/>
      <point x="121" y="206" type="line" smooth="yes"/>
      <point x="121" y="128"/>
      <point x="191" y="88"/>
      <point x="260" y="88" type="curve" smooth="yes"/>
      <point x="321" y="88"/>
      <point x="390" y="120"/>
      <point x="390" y="189" type="curve" smooth="yes"/>
      <point x="390" y="271"/>
      <point x="294" y="279"/>
      <point x="229" y="279" type="curve" smooth="yes"/>
      <point x="217" y="279" type="line"/>
      <point x="217" y="372" type="line"/>
      <point x="229" y="372" type="line" smooth="yes"/>
      <point x="233" y="372" type="line" smooth="yes"/>
      <point x="283" y="372"/>
      <point x="372" y="377"/>
      <point x="372" y="441" type="curve" smooth="yes"/>
      <point x="372" y="500"/>
      <point x="297" y="523"/>
      <point x="249" y="523" type="curve" smooth="yes"/>
      <point x="195" y="523"/>
      <point x="121" y="493"/>
      <point x="121" y="405" type="curve"/>
      <point x="121" y="387" type="line"/>
      <point x="39" y="387" type="line"/>
      <point x="39" y="405" type="line" smooth="yes"/>
      <point x="39" y="571"/>
      <point x="176" y="616"/>
      <point x="257" y="616" type="curve" smooth="yes"/>
      <point x="352" y="616"/>
      <point x="454" y="554"/>
      <point x="454" y="443" type="curve" smooth="yes"/>
      <point x="454" y="390"/>
      <point x="431" y="352"/>
      <point x="405" y="328" type="curve"/>
      <point x="439" y="301"/>
      <point x="472" y="254"/>
    </contour>
  </outline>
</glyph>
<glyph name="four" format="2">
  <advance width="489"/>
  <unicode hex="0034"/>
  <outline>
    <contour>
      <point x="386" y="611" type="line"/>
      <point x="386" y="206" type="line"/>
      <point x="472" y="206" type="line"/>
      <point x="472" y="113" type="line"/>
      <point x="386" y="113" type="line"/>
      <point x="386" y="0" type="line"/>
      <point x="304" y="0" type="line"/>
      <point x="304" y="113" type="line"/>
      <point x="31" y="113" type="line"/>
      <point x="31" y="190" type="line"/>
      <point x="320" y="611" type="line"/>
    </contour>
    <contour>
      <point x="304" y="206" type="line"/>
      <point x="304" y="434" type="line"/>
      <point x="147" y="206" type="line"/>
    </contour>
  </outline>
</glyph>
<glyph name="five" format="2">
  <advance width="524"/>
  <unicode hex="0035"/>
  <outline>
    <contour>
      <point x="486" y="220" type="curve" smooth="yes"/>
      <point x="486" y="45"/>
      <point x="349" y="-2"/>
      <point x="270" y="-2" type="curve" smooth="yes"/>
      <point x="190" y="-2"/>
      <point x="53" y="45"/>
      <point x="53" y="220" type="curve" smooth="yes"/>
      <point x="53" y="238" type="line"/>
      <point x="135" y="238" type="line"/>
      <point x="135" y="220" type="line" smooth="yes"/>
      <point x="135" y="124"/>
      <point x="209" y="91"/>
      <point x="270" y="91" type="curve" smooth="yes"/>
      <point x="331" y="91"/>
      <point x="404" y="124"/>
      <point x="404" y="220" type="curve" smooth="yes"/>
      <point x="404" y="315"/>
      <point x="331" y="349"/>
      <point x="267" y="349" type="curve" smooth="yes"/>
      <point x="222" y="349"/>
      <point x="168" y="332"/>
      <point x="145" y="273" type="curve" smooth="yes"/>
      <point x="141" y="263" type="line"/>
      <point x="66" y="277" type="line"/>
      <point x="66" y="614" type="line"/>
      <point x="457" y="614" type="line"/>
      <point x="457" y="521" type="line"/>
      <point x="148" y="521" type="line"/>
      <point x="148" y="409" type="line"/>
      <point x="187" y="433"/>
      <point x="230" y="442"/>
      <point x="265" y="442" type="curve" smooth="yes"/>
      <point x="349" y="442"/>
      <point x="486" y="395"/>
    </contour>
  </outline>
</glyph>
<glyph name="six" format="2">
  <advance width="487"/>
  <unicode hex="0036"/>
  <outline>
    <contour>
      <point x="456" y="211" type="curve" smooth="yes"/>
      <point x="456" y="52"/>
      <point x="315" y="-3"/>
      <point x="244" y="-3" type="curve" smooth="yes"/>
      <point x="173" y="-3"/>
      <point x="31" y="52"/>
      <point x="31" y="208" type="curve" smooth="yes"/>
      <point x="31" y="267"/>
      <point x="52" y="308"/>
      <point x="76" y="341" type="curve" smooth="yes"/>
      <point x="272" y="614" type="line"/>
      <point x="379" y="614" type="line"/>
      <point x="242" y="424" type="line"/>
      <point x="244" y="424" type="line"/>
      <point x="315" y="424"/>
      <point x="456" y="370"/>
    </contour>
    <contour>
      <point x="374" y="211" type="curve" smooth="yes"/>
      <point x="374" y="291"/>
      <point x="297" y="331"/>
      <point x="244" y="331" type="curve" smooth="yes"/>
      <point x="191" y="331"/>
      <point x="114" y="291"/>
      <point x="114" y="211" type="curve" smooth="yes"/>
      <point x="114" y="131"/>
      <point x="191" y="90"/>
      <point x="244" y="90" type="curve" smooth="yes"/>
      <point x="297" y="90"/>
      <point x="374" y="131"/>
    </contour>
  </outline>
</glyph>
<glyph name="seven" format="2">
  <advance width="454"/>
  <unicode hex="0037"/>
  <outline>
    <contour>
      <point x="437" y="570" type="line"/>
      <point x="162" y="0" type="line"/>
      <point x="68" y="0" type="line"/>
      <point x="318" y="518" type="line"/>
      <point x="18" y="518" type="line"/>
      <point x="18" y="611" type="line"/>
      <point x="437" y="611" type="line"/>
    </contour>
  </outline>
  <guideline angle="0" x="0" y="603"/>
</glyph>
<glyph name="eight" format="2">
  <advance width="503"/>
  <unicode hex="0038"/>
  <outline>
    <contour>
      <point x="465" y="186" type="curve" smooth="yes"/>
      <point x="465" y="63"/>
      <point x="364" y="-5"/>
      <point x="252" y="-5" type="curve" smooth="yes"/>
      <point x="138" y="-5"/>
      <point x="39" y="67"/>
      <point x="39" y="187" type="curve" smooth="yes"/>
      <point x="39" y="253"/>
      <point x="69" y="301"/>
      <point x="104" y="328" type="curve"/>
      <point x="78" y="353"/>
      <point x="56" y="393"/>
      <point x="56" y="447" type="curve" smooth="yes"/>
      <point x="56" y="560"/>
      <point x="151" y="616"/>
      <point x="252" y="616" type="curve" smooth="yes"/>
      <point x="355" y="616"/>
      <point x="448" y="556"/>
      <point x="448" y="446" type="curve" smooth="yes"/>
      <point x="448" y="393"/>
      <point x="426" y="353"/>
      <point x="401" y="328" type="curve"/>
      <point x="434" y="301"/>
      <point x="465" y="254"/>
    </contour>
    <contour>
      <point x="138" y="443" type="curve" smooth="yes"/>
      <point x="138" y="384"/>
      <point x="205" y="372"/>
      <point x="252" y="372" type="curve" smooth="yes"/>
      <point x="300" y="372"/>
      <point x="366" y="384"/>
      <point x="366" y="443" type="curve" smooth="yes"/>
      <point x="366" y="503"/>
      <point x="302" y="523"/>
      <point x="252" y="523" type="curve" smooth="yes"/>
      <point x="202" y="523"/>
      <point x="138" y="501"/>
    </contour>
    <contour>
      <point x="383" y="189" type="curve" smooth="yes"/>
      <point x="383" y="259"/>
      <point x="312" y="279"/>
      <point x="252" y="279" type="curve" smooth="yes"/>
      <point x="191" y="279"/>
      <point x="121" y="259"/>
      <point x="121" y="188" type="curve" smooth="yes"/>
      <point x="121" y="117"/>
      <point x="192" y="88"/>
      <point x="252" y="88" type="curve" smooth="yes"/>
      <point x="314" y="88"/>
      <point x="383" y="119"/>
    </contour>
  </outline>
</glyph>
<glyph name="nine" format="2">
  <advance width="487"/>
  <unicode hex="0039"/>
  <outline>
    <contour>
      <point x="31" y="398" type="curve" smooth="yes"/>
      <point x="31" y="556"/>
      <point x="173" y="611"/>
      <point x="244" y="611" type="curve" smooth="yes"/>
      <point x="315" y="611"/>
      <point x="456" y="556"/>
      <point x="456" y="398" type="curve" smooth="yes"/>
      <point x="456" y="350"/>
      <point x="441" y="307"/>
      <point x="419" y="278" type="curve" smooth="yes"/>
      <point x="219" y="0" type="line"/>
      <point x="113" y="0" type="line"/>
      <point x="246" y="184" type="line"/>
      <point x="245" y="184"/>
      <point x="245" y="184"/>
      <point x="244" y="184" type="curve"/>
      <point x="173" y="184"/>
      <point x="31" y="239"/>
    </contour>
    <contour>
      <point x="114" y="398" type="curve" smooth="yes"/>
      <point x="114" y="317"/>
      <point x="191" y="277"/>
      <point x="244" y="277" type="curve" smooth="yes"/>
      <point x="296" y="277"/>
      <point x="374" y="318"/>
      <point x="374" y="398" type="curve" smooth="yes"/>
      <point x="374" y="478"/>
      <point x="297" y="518"/>
      <point x="244" y="518" type="curve" smooth="yes"/>
      <point x="191" y="518"/>
      <point x="114" y="478"/>
    </contour>
  </outline>
</glyph>
<glyph name="colon" format="2">
  <advance width="174"/>
  <unicode hex="003A"/>
  <outline>
    <contour>
      <point x="143" y="75" type="line"/>
      <point x="31" y="75" type="line"/>
      <point x="31" y="201" type="line"/>
      <point x="143" y="201" type="line"/>
    </contour>
    <contour>
      <point x="143" y="344" type="line"/>
      <point x="31" y="344" type="line"/>
      <point x="31" y="469" type="line"/>
      <point x="143" y="469" type="line"/>
    </contour>
  </outline>
</glyph>
<glyph name="semicolon" format="2">
  <advance width="256"/>
  <unicode hex="003B"/>
  <outline>
    <contour>
      <point x="225" y="344" type="line"/>
      <point x="113" y="344" type="line"/>
      <point x="113" y="469" type="line"/>
      <point x="225" y="469" type="line"/>
    </contour>
    <contour>
      <point x="31" y="-21" type="line"/>
      <point x="65" y="12" type="line" smooth="yes"/>
      <point x="99" y="46"/>
      <point x="123" y="122"/>
      <point x="128" y="185" type="curve" smooth="yes"/>
      <point x="129" y="201" type="line"/>
      <point x="225" y="201" type="line"/>
      <point x="225" y="183" type="line"/>
      <point x="225" y="104"/>
      <point x="184" y="29"/>
      <point x="151" y="-16" type="curve" smooth="yes"/>
      <point x="148" y="-21" type="line"/>
    </contour>
  </outline>
</glyph>
<glyph name="less" format="2">
  <advance width="312"/>
  <unicode hex="003C"/>
  <outline>
    <contour>
      <point x="295" y="96" type="line"/>
      <point x="18" y="265" type="line"/>
      <point x="18" y="357" type="line"/>
      <point x="295" y="527" type="line"/>
      <point x="295" y="421" type="line"/>
      <point x="116" y="312" type="line"/>
      <point x="295" y="202" type="line"/>
    </contour>
  </outline>
</glyph>
<glyph name="greater" format="2">
  <advance width="326"/>
  <unicode hex="003E"/>
  <outline>
    <contour>
      <point x="31" y="202" type="line"/>
      <point x="210" y="312" type="line"/>
      <point x="31" y="421" type="line"/>
      <point x="31" y="527" type="line"/>
      <point x="309" y="357" type="line"/>
      <point x="309" y="265" type="line"/>
      <point x="31" y="96" type="line"/>
    </contour>
  </outline>
</glyph>
<glyph name="question" format="2">
  <advance width="442"/>
  <unicode hex="003F"/>
  <outline>
    <contour>
      <point x="275" y="0" type="line"/>
      <point x="164" y="0" type="line"/>
      <point x="164" y="126" type="line"/>
      <point x="275" y="126" type="line"/>
    </contour>
    <contour>
      <point x="179" y="165" type="line"/>
      <point x="179" y="183" type="line" smooth="yes"/>
      <point x="179" y="283"/>
      <point x="219" y="333"/>
      <point x="283" y="398" type="curve" smooth="yes"/>
      <point x="295" y="410"/>
      <point x="303" y="418"/>
      <point x="310" y="426" type="curve" smooth="yes"/>
      <point x="323" y="443"/>
      <point x="329" y="457"/>
      <point x="329" y="473" type="curve" smooth="yes"/>
      <point x="329" y="523"/>
      <point x="269" y="548"/>
      <point x="226" y="548" type="curve" smooth="yes"/>
      <point x="170" y="548"/>
      <point x="114" y="507"/>
      <point x="114" y="422" type="curve" smooth="yes"/>
      <point x="114" y="404" type="line"/>
      <point x="31" y="404" type="line"/>
      <point x="31" y="422" type="line" smooth="yes"/>
      <point x="31" y="583"/>
      <point x="147" y="641"/>
      <point x="233" y="641" type="curve" smooth="yes"/>
      <point x="326" y="641"/>
      <point x="411" y="573"/>
      <point x="411" y="468" type="curve" smooth="yes"/>
      <point x="411" y="406"/>
      <point x="381" y="370"/>
      <point x="336" y="326" type="curve" smooth="yes"/>
      <point x="332" y="322" type="line" smooth="yes"/>
      <point x="292" y="283"/>
      <point x="261" y="248"/>
      <point x="261" y="183" type="curve" smooth="yes"/>
      <point x="261" y="165" type="line"/>
    </contour>
  </outline>
</glyph>
<glyph name="at" format="2">
  <advance width="433"/>
  <unicode hex="0040"/>
  <outline>
    <contour>
      <point x="217" y="202" type="curve" smooth="yes"/>
      <point x="186" y="202"/>
      <point x="160" y="228"/>
      <point x="160" y="259" type="curve" smooth="yes"/>
      <point x="160" y="290"/>
      <point x="186" y="316"/>
      <point x="217" y="316" type="curve" smooth="yes"/>
      <point x="248" y="316"/>
      <point x="273" y="290"/>
      <point x="273" y="259" type="curve" smooth="yes"/>
      <point x="273" y="228"/>
      <point x="248" y="202"/>
    </contour>
    <contour>
      <point x="216" y="444" type="curve" smooth="yes"/>
      <point x="114" y="444"/>
      <point x="31" y="360"/>
      <point x="31" y="259" type="curve" smooth="yes"/>
      <point x="31" y="157"/>
      <point x="115" y="74"/>
      <point x="217" y="74" type="curve"/>
      <point x="218" y="74" type="line"/>
      <point x="242" y="74"/>
      <point x="266" y="80"/>
      <point x="291" y="89" type="curve"/>
      <point x="270" y="141" type="line"/>
      <point x="251" y="132"/>
      <point x="234" y="129"/>
      <point x="218" y="129" type="curve" smooth="yes"/>
      <point x="145" y="129"/>
      <point x="87" y="187"/>
      <point x="87" y="259" type="curve" smooth="yes"/>
      <point x="87" y="331"/>
      <point x="145" y="389"/>
      <point x="216" y="389" type="curve" smooth="yes"/>
      <point x="287" y="389"/>
      <point x="347" y="330"/>
      <point x="347" y="260" type="curve" smooth="yes"/>
      <point x="347" y="235"/>
      <point x="340" y="202"/>
      <point x="332" y="202" type="curve" smooth="yes"/>
      <point x="330" y="202"/>
      <point x="328" y="204"/>
      <point x="328" y="206" type="curve" smooth="yes"/>
      <point x="328" y="259" type="line" smooth="yes"/>
      <point x="328" y="321"/>
      <point x="279" y="370"/>
      <point x="217" y="370" type="curve" smooth="yes"/>
      <point x="155" y="370"/>
      <point x="105" y="321"/>
      <point x="105" y="259" type="curve" smooth="yes"/>
      <point x="105" y="197"/>
      <point x="155" y="148"/>
      <point x="217" y="148" type="curve" smooth="yes"/>
      <point x="242" y="148"/>
      <point x="266" y="156"/>
      <point x="285" y="171" type="curve"/>
      <point x="295" y="157"/>
      <point x="312" y="148"/>
      <point x="330" y="148" type="curve" smooth="yes"/>
      <point x="381" y="148"/>
      <point x="402" y="217"/>
      <point x="402" y="265" type="curve" smooth="yes"/>
      <point x="402" y="362"/>
      <point x="315" y="444"/>
    </contour>
  </outline>
</glyph>
<glyph name="A" format="2">
  <advance width="665"/>
  <unicode hex="0041"/>
  <outline>
    <contour>
      <point x="558" y="0" type="line"/>
      <point x="472" y="213" type="line"/>
      <point x="194" y="213" type="line"/>
      <point x="108" y="0" type="line"/>
      <point x="18" y="0" type="line"/>
      <point x="295" y="688" type="line"/>
      <point x="371" y="688" type="line"/>
      <point x="648" y="0" type="line"/>
    </contour>
    <contour>
      <point x="231" y="306" type="line"/>
      <point x="434" y="306" type="line"/>
      <point x="333" y="558" type="line"/>
    </contour>
  </outline>
</glyph>
<glyph name="B" format="2">
  <advance width="628"/>
  <unicode hex="0042"/>
  <outline>
    <contour>
      <point x="142" y="410" type="line"/>
      <point x="360" y="410" type="line"/>
      <point x="416" y="410"/>
      <point x="485" y="440"/>
      <point x="485" y="503" type="curve" smooth="yes"/>
      <point x="485" y="569"/>
      <point x="412" y="594"/>
      <point x="356" y="594" type="curve"/>
      <point x="142" y="594" type="line"/>
    </contour>
    <contour>
      <point x="142" y="93" type="line"/>
      <point x="356" y="93" type="line"/>
      <point x="425" y="93"/>
      <point x="515" y="127"/>
      <point x="515" y="207" type="curve" smooth="yes"/>
      <point x="515" y="286"/>
      <point x="428" y="317"/>
      <point x="360" y="317" type="curve"/>
      <point x="142" y="317" type="line"/>
    </contour>
    <contour>
      <point x="59" y="0" type="line"/>
      <point x="59" y="688" type="line"/>
      <point x="356" y="688" type="line" smooth="yes"/>
      <point x="466" y="688"/>
      <point x="567" y="623"/>
      <point x="567" y="507" type="curve" smooth="yes"/>
      <point x="567" y="444"/>
      <point x="538" y="399"/>
      <point x="507" y="370" type="curve"/>
      <point x="550" y="342"/>
      <point x="597" y="289"/>
      <point x="597" y="206" type="curve" smooth="yes"/>
      <point x="597" y="74"/>
      <point x="479" y="0"/>
      <point x="356" y="0" type="curve" smooth="yes"/>
    </contour>
  </outline>
</glyph>
<glyph name="C" format="2">
  <advance width="681"/>
  <unicode hex="0043"/>
  <outline>
    <contour>
      <point x="643" y="244" type="line"/>
      <point x="636" y="219" type="line" smooth="yes"/>
      <point x="589" y="50"/>
      <point x="453" y="-5"/>
      <point x="346" y="-5" type="curve" smooth="yes"/>
      <point x="160" y="-5"/>
      <point x="31" y="163"/>
      <point x="31" y="343" type="curve" smooth="yes"/>
      <point x="31" y="520"/>
      <point x="158" y="692"/>
      <point x="346" y="692" type="curve" smooth="yes"/>
      <point x="454" y="692"/>
      <point x="589" y="636"/>
      <point x="636" y="469" type="curve" smooth="yes"/>
      <point x="643" y="444" type="line"/>
      <point x="557" y="444" type="line"/>
      <point x="554" y="453" type="line" smooth="yes"/>
      <point x="516" y="565"/>
      <point x="424" y="599"/>
      <point x="342" y="599" type="curve" smooth="yes"/>
      <point x="242" y="599"/>
      <point x="114" y="510"/>
      <point x="114" y="344" type="curve" smooth="yes"/>
      <point x="114" y="178"/>
      <point x="242" y="88"/>
      <point x="342" y="88" type="curve" smooth="yes"/>
      <point x="424" y="88"/>
      <point x="516" y="123"/>
      <point x="554" y="234" type="curve" smooth="yes"/>
      <point x="557" y="244" type="line"/>
    </contour>
  </outline>
</glyph>
<glyph name="D" format="2">
  <advance width="661"/>
  <unicode hex="0044"/>
  <outline>
    <contour>
      <point x="142" y="93" type="line"/>
      <point x="279" y="93" type="line"/>
      <point x="384" y="93"/>
      <point x="548" y="155"/>
      <point x="548" y="340" type="curve" smooth="yes"/>
      <point x="548" y="491"/>
      <point x="440" y="595"/>
      <point x="279" y="595" type="curve"/>
      <point x="142" y="595" type="line"/>
    </contour>
    <contour>
      <point x="59" y="0" type="line"/>
      <point x="59" y="689" type="line"/>
      <point x="279" y="689" type="line" smooth="yes"/>
      <point x="479" y="689"/>
      <point x="630" y="550"/>
      <point x="630" y="345" type="curve" smooth="yes"/>
      <point x="630" y="142"/>
      <point x="481" y="0"/>
      <point x="279" y="0" type="curve" smooth="yes"/>
    </contour>
  </outline>
  <guideline angle="0" x="0" y="840"/>
</glyph>
<glyph name="E" format="2">
  <advance width="585"/>
  <unicode hex="0045"/>
  <outline>
    <contour>
      <point x="547" y="93" type="line"/>
      <point x="547" y="0" type="line"/>
      <point x="59" y="0" type="line"/>
      <point x="59" y="688" type="line"/>
      <point x="539" y="688" type="line"/>
      <point x="539" y="594" type="line"/>
      <point x="142" y="594" type="line"/>
      <point x="142" y="406" type="line"/>
      <point x="499" y="406" type="line"/>
      <point x="499" y="313" type="line"/>
      <point x="142" y="313" type="line"/>
      <point x="142" y="93" type="line"/>
    </contour>
  </outline>
</glyph>
<glyph name="F" format="2">
  <advance width="532"/>
  <unicode hex="0046"/>
  <outline>
    <contour>
      <point x="142" y="594" type="line"/>
      <point x="142" y="406" type="line"/>
      <point x="476" y="406" type="line"/>
      <point x="476" y="313" type="line"/>
      <point x="142" y="313" type="line"/>
      <point x="142" y="0" type="line"/>
      <point x="59" y="0" type="line"/>
      <point x="59" y="687" type="line"/>
      <point x="515" y="687" type="line"/>
      <point x="515" y="594" type="line"/>
    </contour>
  </outline>
</glyph>
<glyph name="G" format="2">
  <advance width="706"/>
  <unicode hex="0047"/>
  <outline>
    <contour>
      <point x="345" y="369" type="line"/>
      <point x="654" y="369" type="line"/>
      <point x="653" y="340" type="line" smooth="yes"/>
      <point x="646" y="159"/>
      <point x="555" y="-5"/>
      <point x="359" y="-5" type="curve" smooth="yes"/>
      <point x="162" y="-5"/>
      <point x="31" y="160"/>
      <point x="31" y="342" type="curve" smooth="yes"/>
      <point x="31" y="520"/>
      <point x="157" y="692"/>
      <point x="346" y="692" type="curve" smooth="yes"/>
      <point x="450" y="692"/>
      <point x="580" y="640"/>
      <point x="632" y="484" type="curve" smooth="yes"/>
      <point x="640" y="458" type="line"/>
      <point x="553" y="458" type="line"/>
      <point x="549" y="466" type="line" smooth="yes"/>
      <point x="508" y="567"/>
      <point x="420" y="599"/>
      <point x="342" y="599" type="curve" smooth="yes"/>
      <point x="242" y="599"/>
      <point x="114" y="510"/>
      <point x="114" y="344" type="curve" smooth="yes"/>
      <point x="114" y="178"/>
      <point x="242" y="88"/>
      <point x="342" y="88" type="curve" smooth="yes"/>
      <point x="436" y="88"/>
      <point x="539" y="137"/>
      <point x="565" y="276" type="curve"/>
      <point x="345" y="276" type="line"/>
    </contour>
  </outline>
</glyph>
<glyph name="H" format="2">
  <advance width="665"/>
  <unicode hex="0048"/>
  <outline>
    <contour>
      <point x="606" y="688" type="line"/>
      <point x="606" y="0" type="line"/>
      <point x="524" y="0" type="line"/>
      <point x="524" y="317" type="line"/>
      <point x="142" y="317" type="line"/>
      <point x="142" y="0" type="line"/>
      <point x="59" y="0" type="line"/>
      <point x="59" y="688" type="line"/>
      <point x="142" y="688" type="line"/>
      <point x="142" y="410" type="line"/>
      <point x="524" y="410" type="line"/>
      <point x="524" y="688" type="line"/>
    </contour>
  </outline>
</glyph>
<glyph name="J" format="2">
  <advance width="515"/>
  <unicode hex="004A"/>
  <outline>
    <contour>
      <point x="39" y="205" type="curve" smooth="yes"/>
      <point x="39" y="252" type="line"/>
      <point x="121" y="252" type="line"/>
      <point x="121" y="205" type="line" smooth="yes"/>
      <point x="121" y="128"/>
      <point x="196" y="88"/>
      <point x="247" y="88" type="curve" smooth="yes"/>
      <point x="299" y="88"/>
      <point x="374" y="128"/>
      <point x="374" y="205" type="curve" smooth="yes"/>
      <point x="374" y="689" type="line"/>
      <point x="456" y="689" type="line"/>
      <point x="456" y="205" type="line" smooth="yes"/>
      <point x="456" y="49"/>
      <point x="317" y="-5"/>
      <point x="247" y="-5" type="curve" smooth="yes"/>
      <point x="178" y="-5"/>
      <point x="39" y="49"/>
    </contour>
  </outline>
  <guideline angle="0" x="0" y="684"/>
</glyph>
<glyph name="K" format="2">
  <advance width="681"/>
  <unicode hex="004B"/>
  <outline>
    <contour>
      <point x="549" y="0" type="line"/>
      <point x="261" y="340" type="line"/>
      <point x="142" y="234" type="line"/>
      <point x="142" y="0" type="line"/>
      <point x="59" y="0" type="line"/>
      <point x="59" y="688" type="line"/>
      <point x="142" y="688" type="line"/>
      <point x="142" y="353" type="line"/>
      <point x="518" y="688" type="line"/>
      <point x="652" y="688" type="line"/>
      <point x="326" y="398" type="line"/>
      <point x="664" y="0" type="line"/>
    </contour>
  </outline>
</glyph>
<glyph name="L" format="2">
  <advance width="531"/>
  <unicode hex="004C"/>
  <outline>
    <contour>
      <point x="514" y="0" type="line"/>
      <point x="59" y="0" type="line"/>
      <point x="59" y="688" type="line"/>
      <point x="142" y="688" type="line"/>
      <point x="142" y="93" type="line"/>
      <point x="514" y="93" type="line"/>
    </contour>
  </outline>
</glyph>
<glyph name="M" format="2">
  <advance width="807"/>
  <unicode hex="004D"/>
  <outline>
    <contour>
      <point x="748" y="688" type="line"/>
      <point x="748" y="0" type="line"/>
      <point x="666" y="0" type="line"/>
      <point x="666" y="483" type="line"/>
      <point x="438" y="0" type="line"/>
      <point x="362" y="0" type="line"/>
      <point x="135" y="483" type="line"/>
      <point x="135" y="0" type="line"/>
      <point x="53" y="0" type="line"/>
      <point x="53" y="688" type="line"/>
      <point x="132" y="688" type="line"/>
      <point x="400" y="118" type="line"/>
      <point x="668" y="688" type="line"/>
    </contour>
  </outline>
</glyph>
<glyph name="N" format="2">
  <advance width="655"/>
  <unicode hex="004E"/>
  <outline>
    <contour>
      <point x="514" y="0" type="line"/>
      <point x="142" y="535" type="line"/>
      <point x="142" y="0" type="line"/>
      <point x="59" y="0" type="line"/>
      <point x="59" y="688" type="line"/>
      <point x="141" y="688" type="line"/>
      <point x="514" y="152" type="line"/>
      <point x="514" y="688" type="line"/>
      <point x="596" y="688" type="line"/>
      <point x="596" y="0" type="line"/>
    </contour>
  </outline>
</glyph>
<glyph name="O" format="2">
  <advance width="706"/>
  <unicode hex="004F"/>
  <outline>
    <contour>
      <point x="114" y="342" type="curve" smooth="yes"/>
      <point x="114" y="210"/>
      <point x="217" y="88"/>
      <point x="353" y="88" type="curve" smooth="yes"/>
      <point x="490" y="88"/>
      <point x="593" y="210"/>
      <point x="593" y="342" type="curve" smooth="yes"/>
      <point x="593" y="474"/>
      <point x="493" y="599"/>
      <point x="353" y="599" type="curve" smooth="yes"/>
      <point x="214" y="599"/>
      <point x="114" y="474"/>
    </contour>
    <contour>
      <point x="31" y="343" type="curve" smooth="yes"/>
      <point x="31" y="523"/>
      <point x="165" y="692"/>
      <point x="353" y="692" type="curve" smooth="yes"/>
      <point x="540" y="692"/>
      <point x="675" y="523"/>
      <point x="675" y="342" type="curve" smooth="yes"/>
      <point x="675" y="164"/>
      <point x="544" y="-5"/>
      <point x="353" y="-5" type="curve" smooth="yes"/>
      <point x="164" y="-5"/>
      <point x="31" y="163"/>
    </contour>
  </outline>
</glyph>
<glyph name="P" format="2">
  <advance width="606"/>
  <unicode hex="0050"/>
  <outline>
    <contour>
      <point x="142" y="358" type="line"/>
      <point x="365" y="358" type="line"/>
      <point x="422" y="358"/>
      <point x="493" y="393"/>
      <point x="493" y="479" type="curve" smooth="yes"/>
      <point x="493" y="565"/>
      <point x="421" y="595"/>
      <point x="365" y="595" type="curve"/>
      <point x="142" y="595" type="line"/>
    </contour>
    <contour>
      <point x="142" y="0" type="line"/>
      <point x="59" y="0" type="line"/>
      <point x="59" y="689" type="line"/>
      <point x="365" y="689" type="line" smooth="yes"/>
      <point x="438" y="689"/>
      <point x="575" y="645"/>
      <point x="575" y="480" type="curve" smooth="yes"/>
      <point x="575" y="315"/>
      <point x="440" y="265"/>
      <point x="365" y="265" type="curve"/>
      <point x="142" y="265" type="line"/>
    </contour>
  </outline>
</glyph>
<glyph name="Q" format="2">
  <advance width="712"/>
  <unicode hex="0051"/>
  <outline>
    <contour>
      <point x="455" y="112" type="curve"/>
      <point x="378" y="169" type="line"/>
      <point x="433" y="240" type="line"/>
      <point x="529" y="170" type="line"/>
      <point x="566" y="212"/>
      <point x="593" y="272"/>
      <point x="593" y="341" type="curve" smooth="yes"/>
      <point x="593" y="474"/>
      <point x="492" y="599"/>
      <point x="353" y="599" type="curve" smooth="yes"/>
      <point x="216" y="599"/>
      <point x="114" y="476"/>
      <point x="114" y="343" type="curve" smooth="yes"/>
      <point x="114" y="211"/>
      <point x="215" y="88"/>
      <point x="353" y="88" type="curve" smooth="yes"/>
      <point x="388" y="88"/>
      <point x="422" y="96"/>
    </contour>
    <contour>
      <point x="599" y="118" type="curve"/>
      <point x="681" y="57" type="line"/>
      <point x="627" y="-14" type="line"/>
      <point x="534" y="54" type="line"/>
      <point x="477" y="13"/>
      <point x="413" y="-5"/>
      <point x="351" y="-5" type="curve" smooth="yes"/>
      <point x="165" y="-5"/>
      <point x="31" y="162"/>
      <point x="31" y="342" type="curve" smooth="yes"/>
      <point x="31" y="521"/>
      <point x="164" y="692"/>
      <point x="354" y="692" type="curve" smooth="yes"/>
      <point x="544" y="692"/>
      <point x="675" y="521"/>
      <point x="675" y="340" type="curve" smooth="yes"/>
      <point x="675" y="249"/>
      <point x="642" y="173"/>
    </contour>
  </outline>
</glyph>
<glyph name="R" format="2">
  <advance width="637"/>
  <unicode hex="0052"/>
  <outline>
    <contour>
      <point x="142" y="0" type="line"/>
      <point x="59" y="0" type="line"/>
      <point x="59" y="688" type="line"/>
      <point x="379" y="688" type="line" smooth="yes"/>
      <point x="451" y="688"/>
      <point x="588" y="644"/>
      <point x="588" y="483" type="curve" smooth="yes"/>
      <point x="588" y="381"/>
      <point x="534" y="316"/>
      <point x="481" y="288" type="curve"/>
      <point x="620" y="0" type="line"/>
      <point x="526" y="0" type="line"/>
      <point x="399" y="265" type="line"/>
      <point x="392" y="264"/>
      <point x="385" y="264"/>
      <point x="379" y="264" type="curve"/>
      <point x="142" y="264" type="line"/>
    </contour>
    <contour>
      <point x="142" y="594" type="line"/>
      <point x="142" y="357" type="line"/>
      <point x="379" y="357" type="line"/>
      <point x="435" y="357"/>
      <point x="506" y="392"/>
      <point x="506" y="478" type="curve" smooth="yes"/>
      <point x="506" y="564"/>
      <point x="434" y="594"/>
      <point x="379" y="594" type="curve"/>
    </contour>
  </outline>
</glyph>
<glyph name="S" format="2">
  <advance width="598"/>
  <unicode hex="0053"/>
  <outline>
    <contour>
      <point x="31" y="227" type="curve" smooth="yes"/>
      <point x="31" y="235"/>
      <point x="31" y="242"/>
      <point x="33" y="250" type="curve" smooth="yes"/>
      <point x="35" y="266" type="line"/>
      <point x="117" y="259" type="line"/>
      <point x="115" y="240" type="line" smooth="yes"/>
      <point x="114" y="236"/>
      <point x="114" y="231"/>
      <point x="114" y="227" type="curve" smooth="yes"/>
      <point x="114" y="128"/>
      <point x="230" y="88"/>
      <point x="311" y="88" type="curve" smooth="yes"/>
      <point x="379" y="88"/>
      <point x="484" y="116"/>
      <point x="484" y="197" type="curve" smooth="yes"/>
      <point x="484" y="263"/>
      <point x="412" y="287"/>
      <point x="363" y="300" type="curve" smooth="yes"/>
      <point x="339" y="307"/>
      <point x="319" y="312"/>
      <point x="299" y="316" type="curve" smooth="yes"/>
      <point x="189" y="343"/>
      <point x="56" y="374"/>
      <point x="56" y="510" type="curve" smooth="yes"/>
      <point x="56" y="643"/>
      <point x="183" y="692"/>
      <point x="290" y="692" type="curve" smooth="yes"/>
      <point x="379" y="692"/>
      <point x="548" y="658"/>
      <point x="548" y="464" type="curve"/>
      <point x="548" y="446" type="line"/>
      <point x="466" y="446" type="line"/>
      <point x="466" y="464" type="line" smooth="yes"/>
      <point x="466" y="563"/>
      <point x="386" y="599"/>
      <point x="302" y="599" type="curve" smooth="yes"/>
      <point x="241" y="599"/>
      <point x="138" y="580"/>
      <point x="138" y="510" type="curve" smooth="yes"/>
      <point x="138" y="482"/>
      <point x="155" y="461"/>
      <point x="196" y="443" type="curve" smooth="yes"/>
      <point x="229" y="428"/>
      <point x="269" y="419"/>
      <point x="311" y="409" type="curve" smooth="yes"/>
      <point x="430" y="380"/>
      <point x="567" y="348"/>
      <point x="567" y="201" type="curve" smooth="yes"/>
      <point x="567" y="57"/>
      <point x="437" y="-5"/>
      <point x="313" y="-5" type="curve" smooth="yes"/>
      <point x="172" y="-5"/>
      <point x="31" y="75"/>
    </contour>
  </outline>
</glyph>
<glyph name="T" format="2">
  <advance width="566"/>
  <unicode hex="0054"/>
  <outline>
    <contour>
      <point x="244" y="594" type="line"/>
      <point x="18" y="594" type="line"/>
      <point x="18" y="688" type="line"/>
      <point x="549" y="688" type="line"/>
      <point x="549" y="594" type="line"/>
      <point x="326" y="594" type="line"/>
      <point x="326" y="0" type="line"/>
      <point x="244" y="0" type="line"/>
    </contour>
  </outline>
</glyph>
<glyph name="U" format="2">
  <advance width="650"/>
  <unicode hex="0055"/>
  <outline>
    <contour>
      <point x="598" y="688" type="line"/>
      <point x="598" y="265" type="line" smooth="yes"/>
      <point x="598" y="118"/>
      <point x="480" y="-4"/>
      <point x="329" y="-4" type="curve" smooth="yes"/>
      <point x="179" y="-4"/>
      <point x="59" y="118"/>
      <point x="59" y="265" type="curve" smooth="yes"/>
      <point x="59" y="688" type="line"/>
      <point x="142" y="688" type="line"/>
      <point x="142" y="265" type="line" smooth="yes"/>
      <point x="142" y="145"/>
      <point x="256" y="89"/>
      <point x="329" y="89" type="curve" smooth="yes"/>
      <point x="403" y="89"/>
      <point x="516" y="145"/>
      <point x="516" y="265" type="curve" smooth="yes"/>
      <point x="516" y="688" type="line"/>
    </contour>
  </outline>
</glyph>
<glyph name="V" format="2">
  <advance width="647"/>
  <unicode hex="0056"/>
  <outline>
    <contour>
      <point x="630" y="688" type="line"/>
      <point x="362" y="0" type="line"/>
      <point x="286" y="0" type="line"/>
      <point x="18" y="688" type="line"/>
      <point x="108" y="688" type="line"/>
      <point x="324" y="133" type="line"/>
      <point x="540" y="688" type="line"/>
    </contour>
  </outline>
</glyph>
<glyph name="W" format="2">
  <advance width="925"/>
  <unicode hex="0057"/>
  <outline>
    <contour>
      <point x="908" y="688" type="line"/>
      <point x="699" y="0" type="line"/>
      <point x="623" y="0" type="line"/>
      <point x="463" y="526" type="line"/>
      <point x="303" y="0" type="line"/>
      <point x="227" y="0" type="line"/>
      <point x="18" y="688" type="line"/>
      <point x="105" y="688" type="line"/>
      <point x="265" y="161" type="line"/>
      <point x="425" y="688" type="line"/>
      <point x="501" y="688" type="line"/>
      <point x="661" y="161" type="line"/>
      <point x="821" y="688" type="line"/>
    </contour>
  </outline>
</glyph>
<glyph name="X" format="2">
  <advance width="663"/>
  <unicode hex="0058"/>
  <outline>
    <contour>
      <point x="385" y="356" type="line"/>
      <point x="646" y="0" type="line"/>
      <point x="538" y="0" type="line"/>
      <point x="332" y="283" type="line"/>
      <point x="125" y="0" type="line"/>
      <point x="18" y="0" type="line"/>
      <point x="278" y="356" type="line"/>
      <point x="37" y="688" type="line"/>
      <point x="144" y="688" type="line"/>
      <point x="332" y="430" type="line"/>
      <point x="520" y="688" type="line"/>
      <point x="627" y="688" type="line"/>
    </contour>
  </outline>
</glyph>
<glyph name="Y" format="2">
  <advance width="649"/>
  <unicode hex="0059"/>
  <outline>
    <contour>
      <point x="632" y="688" type="line"/>
      <point x="366" y="252" type="line"/>
      <point x="366" y="0" type="line"/>
      <point x="284" y="0" type="line"/>
      <point x="284" y="252" type="line"/>
      <point x="18" y="688" type="line"/>
      <point x="118" y="688" type="line"/>
      <point x="325" y="350" type="line"/>
      <point x="532" y="688" type="line"/>
    </contour>
  </outline>
</glyph>
<glyph name="Z" format="2">
  <advance width="607"/>
  <unicode hex="005A"/>
  <outline>
    <contour>
      <point x="150" y="93" type="line"/>
      <point x="569" y="93" type="line"/>
      <point x="569" y="0" type="line"/>
      <point x="39" y="0" type="line"/>
      <point x="39" y="93" type="line"/>
      <point x="436" y="594" type="line"/>
      <point x="63" y="594" type="line"/>
      <point x="63" y="688" type="line"/>
      <point x="547" y="688" type="line"/>
      <point x="547" y="595" type="line"/>
    </contour>
  </outline>
</glyph>
<glyph name="bracketleft" format="2">
  <advance width="257"/>
  <unicode hex="005B"/>
  <outline>
    <contour>
      <point x="240" y="-157" type="line"/>
      <point x="59" y="-157" type="line"/>
      <point x="59" y="688" type="line"/>
      <point x="240" y="688" type="line"/>
      <point x="240" y="594" type="line"/>
      <point x="142" y="594" type="line"/>
      <point x="142" y="-64" type="line"/>
      <point x="240" y="-64" type="line"/>
    </contour>
  </outline>
</glyph>
<glyph name="backslash" format="2">
  <advance width="531"/>
  <unicode hex="005C"/>
  <outline>
    <contour>
      <point x="111" y="688" type="line"/>
      <point x="514" y="-157" type="line"/>
      <point x="420" y="-157" type="line"/>
      <point x="18" y="688" type="line"/>
    </contour>
  </outline>
</glyph>
<glyph name="bracketright" format="2">
  <advance width="256"/>
  <unicode hex="005D"/>
  <outline>
    <contour>
      <point x="197" y="-157" type="line"/>
      <point x="18" y="-157" type="line"/>
      <point x="18" y="-64" type="line"/>
      <point x="115" y="-64" type="line"/>
      <point x="115" y="594" type="line"/>
      <point x="18" y="594" type="line"/>
      <point x="18" y="688" type="line"/>
      <point x="197" y="688" type="line"/>
    </contour>
  </outline>
</glyph>
<glyph name="ltr94" format="2">
  <advance width="485"/>
  <unicode hex="005E"/>
  <outline>
    <contour>
      <point x="281" y="611" type="line"/>
      <point x="464" y="328" type="line"/>
      <point x="362" y="328" type="line"/>
      <point x="242" y="514" type="line"/>
      <point x="123" y="328" type="line"/>
      <point x="21" y="328" type="line"/>
      <point x="202" y="611" type="line"/>
    </contour>
  </outline>
</glyph>
<glyph name="ltr95" format="2">
  <advance width="417"/>
  <unicode hex="005F"/>
  <outline>
    <contour>
      <point x="396" y="0" type="line"/>
      <point x="21" y="0" type="line"/>
      <point x="21" y="93" type="line"/>
      <point x="396" y="93" type="line"/>
    </contour>
  </outline>
</glyph>
<glyph name="a" format="2">
  <advance width="559"/>
  <unicode hex="0061"/>
  <outline>
    <contour>
      <point x="418" y="530" type="line"/>
      <point x="500" y="530" type="line"/>
      <point x="500" y="0" type="line"/>
      <point x="418" y="0" type="line"/>
      <point x="418" y="59" type="line"/>
      <point x="372" y="14"/>
      <point x="317" y="-5"/>
      <point x="263" y="-5" type="curve" smooth="yes"/>
      <point x="119" y="-5"/>
      <point x="31" y="134"/>
      <point x="31" y="264" type="curve" smooth="yes"/>
      <point x="31" y="392"/>
      <point x="119" y="535"/>
      <point x="262" y="535" type="curve" smooth="yes"/>
      <point x="315" y="535"/>
      <point x="373" y="515"/>
      <point x="418" y="471" type="curve"/>
    </contour>
    <contour>
      <point x="418" y="264" type="curve" smooth="yes"/>
      <point x="418" y="375"/>
      <point x="337" y="442"/>
      <point x="266" y="442" type="curve" smooth="yes"/>
      <point x="195" y="442"/>
      <point x="114" y="375"/>
      <point x="114" y="264" type="curve" smooth="yes"/>
      <point x="114" y="153"/>
      <point x="196" y="88"/>
      <point x="266" y="88" type="curve" smooth="yes"/>
      <point x="336" y="88"/>
      <point x="418" y="153"/>
    </contour>
  </outline>
</glyph>
<glyph name="b" format="2">
  <advance width="559"/>
  <unicode hex="0062"/>
  <outline>
    <contour>
      <point x="528" y="264" type="curve" smooth="yes"/>
      <point x="528" y="131"/>
      <point x="436" y="-5"/>
      <point x="297" y="-5" type="curve" smooth="yes"/>
      <point x="245" y="-5"/>
      <point x="187" y="14"/>
      <point x="142" y="58" type="curve"/>
      <point x="142" y="0" type="line"/>
      <point x="59" y="0" type="line"/>
      <point x="59" y="688" type="line"/>
      <point x="142" y="688" type="line"/>
      <point x="142" y="470" type="line"/>
      <point x="188" y="515"/>
      <point x="243" y="535"/>
      <point x="297" y="535" type="curve" smooth="yes"/>
      <point x="442" y="535"/>
      <point x="528" y="392"/>
    </contour>
    <contour>
      <point x="446" y="264" type="curve" smooth="yes"/>
      <point x="446" y="375"/>
      <point x="365" y="442"/>
      <point x="294" y="442" type="curve" smooth="yes"/>
      <point x="223" y="442"/>
      <point x="142" y="375"/>
      <point x="142" y="264" type="curve" smooth="yes"/>
      <point x="142" y="153"/>
      <point x="224" y="88"/>
      <point x="294" y="88" type="curve" smooth="yes"/>
      <point x="364" y="88"/>
      <point x="446" y="153"/>
    </contour>
  </outline>
</glyph>
<glyph name="c" format="2">
  <advance width="539"/>
  <unicode hex="0063"/>
  <outline>
    <contour>
      <point x="501" y="200" type="line"/>
      <point x="495" y="176" type="line" smooth="yes"/>
      <point x="461" y="39"/>
      <point x="356" y="-5"/>
      <point x="272" y="-5" type="curve" smooth="yes"/>
      <point x="130" y="-5"/>
      <point x="31" y="124"/>
      <point x="31" y="263" type="curve" smooth="yes"/>
      <point x="31" y="399"/>
      <point x="127" y="535"/>
      <point x="272" y="535" type="curve" smooth="yes"/>
      <point x="356" y="535"/>
      <point x="460" y="489"/>
      <point x="495" y="355" type="curve" smooth="yes"/>
      <point x="501" y="330" type="line"/>
      <point x="416" y="330" type="line"/>
      <point x="412" y="340" type="line" smooth="yes"/>
      <point x="389" y="413"/>
      <point x="332" y="442"/>
      <point x="280" y="442" type="curve" smooth="yes"/>
      <point x="204" y="442"/>
      <point x="114" y="381"/>
      <point x="114" y="264" type="curve" smooth="yes"/>
      <point x="114" y="147"/>
      <point x="205" y="88"/>
      <point x="281" y="88" type="curve" smooth="yes"/>
      <point x="333" y="88"/>
      <point x="390" y="117"/>
      <point x="413" y="190" type="curve" smooth="yes"/>
      <point x="416" y="200" type="line"/>
    </contour>
  </outline>
</glyph>
<glyph name="d" format="2">
  <advance width="560"/>
  <unicode hex="0064"/>
  <outline>
    <contour>
      <point x="501" y="688" type="line"/>
      <point x="501" y="0" type="line"/>
      <point x="418" y="0" type="line"/>
      <point x="418" y="58" type="line"/>
      <point x="373" y="14"/>
      <point x="317" y="-5"/>
      <point x="264" y="-5" type="curve" smooth="yes"/>
      <point x="119" y="-5"/>
      <point x="31" y="133"/>
      <point x="31" y="264" type="curve" smooth="yes"/>
      <point x="31" y="392"/>
      <point x="120" y="535"/>
      <point x="262" y="535" type="curve" smooth="yes"/>
      <point x="315" y="535"/>
      <point x="373" y="515"/>
      <point x="418" y="471" type="curve"/>
      <point x="418" y="688" type="line"/>
    </contour>
    <contour>
      <point x="418" y="269" type="curve" smooth="yes"/>
      <point x="418" y="276" type="line" smooth="yes"/>
      <point x="418" y="354"/>
      <point x="355" y="442"/>
      <point x="270" y="442" type="curve" smooth="yes"/>
      <point x="196" y="442"/>
      <point x="114" y="375"/>
      <point x="114" y="264" type="curve" smooth="yes"/>
      <point x="114" y="153"/>
      <point x="196" y="88"/>
      <point x="273" y="88" type="curve" smooth="yes"/>
      <point x="366" y="88"/>
      <point x="418" y="182"/>
    </contour>
  </outline>
</glyph>
<glyph name="e" format="2">
  <advance width="538"/>
  <unicode hex="0065"/>
  <outline>
    <contour>
      <point x="31" y="254" type="curve" smooth="yes"/>
      <point x="31" y="68"/>
      <point x="182" y="-5"/>
      <point x="280" y="-5" type="curve" smooth="yes"/>
      <point x="352" y="-5"/>
      <point x="450" y="36"/>
      <point x="488" y="155" type="curve"/>
      <point x="397" y="155" type="line"/>
      <point x="369" y="108"/>
      <point x="322" y="89"/>
      <point x="277" y="89" type="curve" smooth="yes"/>
      <point x="212" y="89"/>
      <point x="138" y="131"/>
      <point x="118" y="222" type="curve"/>
      <point x="500" y="222" type="line"/>
      <point x="500" y="269" type="line" smooth="yes"/>
      <point x="500" y="399"/>
      <point x="413" y="535"/>
      <point x="267" y="535" type="curve" smooth="yes"/>
      <point x="117" y="535"/>
      <point x="31" y="393"/>
    </contour>
    <contour>
      <point x="412" y="315" type="curve"/>
      <point x="120" y="315" type="line"/>
      <point x="141" y="398"/>
      <point x="209" y="442"/>
      <point x="269" y="442" type="curve" smooth="yes"/>
      <point x="329" y="442"/>
      <point x="393" y="399"/>
    </contour>
  </outline>
  <guideline angle="0" x="0" y="155"/>
</glyph>
<glyph name="f" format="2">
  <advance width="339"/>
  <unicode hex="0066"/>
  <outline>
    <contour>
      <point x="287" y="530" type="line"/>
      <point x="287" y="437" type="line"/>
      <point x="204" y="437" type="line"/>
      <point x="204" y="0" type="line"/>
      <point x="122" y="0" type="line"/>
      <point x="122" y="437" type="line"/>
      <point x="39" y="437" type="line"/>
      <point x="39" y="530" type="line"/>
      <point x="122" y="530" type="line"/>
      <point x="122" y="550" type="line"/>
      <point x="122" y="654"/>
      <point x="214" y="688"/>
      <point x="257" y="688" type="curve" smooth="yes"/>
      <point x="301" y="688" type="line"/>
      <point x="301" y="594" type="line"/>
      <point x="257" y="594" type="line" smooth="yes"/>
      <point x="232" y="594"/>
      <point x="204" y="576"/>
      <point x="204" y="550" type="curve"/>
      <point x="204" y="530" type="line"/>
    </contour>
  </outline>
</glyph>
<glyph name="g" format="2">
  <advance width="559"/>
  <unicode hex="0067"/>
  <outline>
    <contour>
      <point x="425" y="59" type="curve"/>
      <point x="379" y="15"/>
      <point x="324" y="-5"/>
      <point x="270" y="-5" type="curve" smooth="yes"/>
      <point x="126" y="-5"/>
      <point x="39" y="137"/>
      <point x="39" y="266" type="curve" smooth="yes"/>
      <point x="39" y="398"/>
      <point x="129" y="535"/>
      <point x="270" y="535" type="curve" smooth="yes"/>
      <point x="323" y="535"/>
      <point x="380" y="516"/>
      <point x="425" y="472" type="curve"/>
      <point x="425" y="530" type="line"/>
      <point x="507" y="530" type="line"/>
      <point x="507" y="73" type="line" smooth="yes"/>
      <point x="507" y="-113"/>
      <point x="371" y="-167"/>
      <point x="280" y="-167" type="curve" smooth="yes"/>
      <point x="235" y="-167"/>
      <point x="166" y="-154"/>
      <point x="121" y="-121" type="curve" smooth="yes"/>
      <point x="105" y="-110" type="line"/>
      <point x="159" y="-38" type="line"/>
      <point x="166" y="-43" type="line" smooth="yes"/>
      <point x="196" y="-64"/>
      <point x="249" y="-74"/>
      <point x="284" y="-74" type="curve" smooth="yes"/>
      <point x="350" y="-74"/>
      <point x="419" y="-40"/>
    </contour>
    <contour>
      <point x="425" y="266" type="curve" smooth="yes"/>
      <point x="425" y="375"/>
      <point x="347" y="442"/>
      <point x="276" y="442" type="curve" smooth="yes"/>
      <point x="205" y="442"/>
      <point x="121" y="379"/>
      <point x="121" y="266" type="curve" smooth="yes"/>
      <point x="121" y="155"/>
      <point x="202" y="88"/>
      <point x="273" y="88" type="curve" smooth="yes"/>
      <point x="342" y="88"/>
      <point x="425" y="154"/>
    </contour>
  </outline>
  <guideline angle="0" x="0" y="540"/>
</glyph>
<glyph name="h" format="2">
  <advance width="547"/>
  <unicode hex="0068"/>
  <outline>
    <contour>
      <point x="495" y="338" type="curve" smooth="yes"/>
      <point x="495" y="0" type="line"/>
      <point x="413" y="0" type="line"/>
      <point x="413" y="338" type="line" smooth="yes"/>
      <point x="413" y="404"/>
      <point x="350" y="437"/>
      <point x="287" y="437" type="curve" smooth="yes"/>
      <point x="214" y="437"/>
      <point x="142" y="392"/>
      <point x="142" y="257" type="curve" smooth="yes"/>
      <point x="142" y="0" type="line"/>
      <point x="59" y="0" type="line"/>
      <point x="59" y="687" type="line"/>
      <point x="142" y="687" type="line"/>
      <point x="142" y="475" type="line"/>
      <point x="187" y="514"/>
      <point x="244" y="530"/>
      <point x="287" y="530" type="curve" smooth="yes"/>
      <point x="356" y="530"/>
      <point x="495" y="488"/>
    </contour>
  </outline>
</glyph>
<glyph name="i" format="2">
  <advance width="201"/>
  <unicode hex="0069"/>
  <outline>
    <contour>
      <point x="59" y="530" type="line"/>
      <point x="142" y="530" type="line"/>
      <point x="142" y="0" type="line"/>
      <point x="59" y="0" type="line"/>
    </contour>
    <contour>
      <point x="142" y="687" type="line"/>
      <point x="142" y="557" type="line"/>
      <point x="59" y="557" type="line"/>
      <point x="59" y="687" type="line"/>
    </contour>
  </outline>
</glyph>
<glyph name="j" format="2">
  <advance width="262"/>
  <unicode hex="006A"/>
  <outline>
    <contour>
      <point x="203" y="687" type="line"/>
      <point x="203" y="558" type="line"/>
      <point x="121" y="558" type="line"/>
      <point x="121" y="687" type="line"/>
    </contour>
    <contour>
      <point x="203" y="530" type="line"/>
      <point x="203" y="-21" type="line" smooth="yes"/>
      <point x="203" y="-125"/>
      <point x="112" y="-158"/>
      <point x="70" y="-158" type="curve" smooth="yes"/>
      <point x="39" y="-158" type="line"/>
      <point x="39" y="-65" type="line"/>
      <point x="70" y="-65" type="line" smooth="yes"/>
      <point x="94" y="-65"/>
      <point x="121" y="-46"/>
      <point x="121" y="-21" type="curve" smooth="yes"/>
      <point x="121" y="530" type="line"/>
    </contour>
  </outline>
</glyph>
<glyph name="k" format="2">
  <advance width="599"/>
  <unicode hex="006B"/>
  <outline>
    <contour>
      <point x="420" y="0" type="line"/>
      <point x="225" y="251" type="line"/>
      <point x="142" y="182" type="line"/>
      <point x="142" y="0" type="line"/>
      <point x="59" y="0" type="line"/>
      <point x="59" y="688" type="line"/>
      <point x="142" y="688" type="line"/>
      <point x="142" y="298" type="line"/>
      <point x="422" y="530" type="line"/>
      <point x="561" y="530" type="line"/>
      <point x="292" y="306" type="line"/>
      <point x="530" y="0" type="line"/>
    </contour>
  </outline>
</glyph>
<glyph name="l" format="2">
  <advance width="201"/>
  <unicode hex="006C"/>
  <outline>
    <contour>
      <point x="142" y="0" type="line"/>
      <point x="59" y="0" type="line"/>
      <point x="59" y="688" type="line"/>
      <point x="142" y="688" type="line"/>
    </contour>
  </outline>
</glyph>
<glyph name="m" format="2">
  <advance width="825"/>
  <unicode hex="006D"/>
  <outline>
    <contour>
      <point x="766" y="337" type="curve" smooth="yes"/>
      <point x="766" y="0" type="line"/>
      <point x="683" y="0" type="line"/>
      <point x="683" y="337" type="line" smooth="yes"/>
      <point x="683" y="407"/>
      <point x="629" y="442"/>
      <point x="576" y="442" type="curve" smooth="yes"/>
      <point x="503" y="442"/>
      <point x="450" y="376"/>
      <point x="450" y="253" type="curve" smooth="yes"/>
      <point x="450" y="0" type="line"/>
      <point x="368" y="0" type="line"/>
      <point x="368" y="337" type="line" smooth="yes"/>
      <point x="368" y="407"/>
      <point x="314" y="442"/>
      <point x="261" y="442" type="curve" smooth="yes"/>
      <point x="187" y="442"/>
      <point x="135" y="376"/>
      <point x="135" y="253" type="curve" smooth="yes"/>
      <point x="135" y="0" type="line"/>
      <point x="53" y="0" type="line"/>
      <point x="53" y="530" type="line"/>
      <point x="135" y="530" type="line"/>
      <point x="135" y="483" type="line"/>
      <point x="175" y="519"/>
      <point x="224" y="535"/>
      <point x="267" y="535" type="curve" smooth="yes"/>
      <point x="319" y="535"/>
      <point x="382" y="512"/>
      <point x="420" y="449" type="curve"/>
      <point x="464" y="510"/>
      <point x="528" y="535"/>
      <point x="579" y="535" type="curve" smooth="yes"/>
      <point x="652" y="535"/>
      <point x="766" y="484"/>
    </contour>
  </outline>
</glyph>
<glyph name="n" format="2">
  <advance width="554"/>
  <unicode hex="006E"/>
  <outline>
    <contour>
      <point x="495" y="341" type="curve" smooth="yes"/>
      <point x="495" y="0" type="line"/>
      <point x="413" y="0" type="line"/>
      <point x="413" y="341" type="line" smooth="yes"/>
      <point x="413" y="409"/>
      <point x="346" y="442"/>
      <point x="298" y="442" type="curve" smooth="yes"/>
      <point x="214" y="442"/>
      <point x="142" y="396"/>
      <point x="142" y="259" type="curve" smooth="yes"/>
      <point x="142" y="0" type="line"/>
      <point x="59" y="0" type="line"/>
      <point x="59" y="530" type="line"/>
      <point x="142" y="530" type="line"/>
      <point x="142" y="479" type="line"/>
      <point x="187" y="519"/>
      <point x="244" y="535"/>
      <point x="287" y="535" type="curve" smooth="yes"/>
      <point x="357" y="535"/>
      <point x="495" y="492"/>
    </contour>
  </outline>
</glyph>
<glyph name="o" format="2">
  <advance width="531"/>
  <unicode hex="006F"/>
  <outline>
    <contour>
      <point x="114" y="264" type="curve" smooth="yes"/>
      <point x="114" y="153"/>
      <point x="196" y="88"/>
      <point x="266" y="88" type="curve" smooth="yes"/>
      <point x="336" y="88"/>
      <point x="418" y="153"/>
      <point x="418" y="264" type="curve" smooth="yes"/>
      <point x="418" y="375"/>
      <point x="337" y="442"/>
      <point x="266" y="442" type="curve" smooth="yes"/>
      <point x="195" y="442"/>
      <point x="114" y="375"/>
    </contour>
    <contour>
      <point x="31" y="264" type="curve" smooth="yes"/>
      <point x="31" y="397"/>
      <point x="123" y="535"/>
      <point x="265" y="535" type="curve" smooth="yes"/>
      <point x="408" y="535"/>
      <point x="500" y="397"/>
      <point x="500" y="264" type="curve" smooth="yes"/>
      <point x="500" y="133"/>
      <point x="411" y="-5"/>
      <point x="266" y="-5" type="curve" smooth="yes"/>
      <point x="122" y="-5"/>
      <point x="31" y="132"/>
    </contour>
  </outline>
</glyph>
<glyph name="p" format="2">
  <advance width="559"/>
  <unicode hex="0070"/>
  <outline>
    <contour>
      <point x="528" y="266" type="curve" smooth="yes"/>
      <point x="528" y="138"/>
      <point x="441" y="-5"/>
      <point x="298" y="-5" type="curve" smooth="yes"/>
      <point x="245" y="-5"/>
      <point x="187" y="15"/>
      <point x="142" y="59" type="curve"/>
      <point x="142" y="-157" type="line"/>
      <point x="59" y="-157" type="line"/>
      <point x="59" y="530" type="line"/>
      <point x="142" y="530" type="line"/>
      <point x="142" y="471" type="line"/>
      <point x="188" y="516"/>
      <point x="243" y="535"/>
      <point x="297" y="535" type="curve" smooth="yes"/>
      <point x="441" y="535"/>
      <point x="528" y="396"/>
    </contour>
    <contour>
      <point x="446" y="266" type="curve" smooth="yes"/>
      <point x="446" y="377"/>
      <point x="364" y="442"/>
      <point x="294" y="442" type="curve" smooth="yes"/>
      <point x="224" y="442"/>
      <point x="142" y="377"/>
      <point x="142" y="266" type="curve" smooth="yes"/>
      <point x="142" y="155"/>
      <point x="223" y="88"/>
      <point x="294" y="88" type="curve" smooth="yes"/>
      <point x="365" y="88"/>
      <point x="446" y="155"/>
    </contour>
  </outline>
</glyph>
<glyph name="q" format="2">
  <advance width="559"/>
  <unicode hex="0071"/>
  <outline>
    <contour>
      <point x="418" y="266" type="curve" smooth="yes"/>
      <point x="418" y="377"/>
      <point x="336" y="442"/>
      <point x="266" y="442" type="curve" smooth="yes"/>
      <point x="196" y="442"/>
      <point x="114" y="377"/>
      <point x="114" y="266" type="curve" smooth="yes"/>
      <point x="114" y="155"/>
      <point x="195" y="88"/>
      <point x="266" y="88" type="curve" smooth="yes"/>
      <point x="337" y="88"/>
      <point x="418" y="155"/>
    </contour>
    <contour>
      <point x="418" y="471" type="curve"/>
      <point x="418" y="530" type="line"/>
      <point x="500" y="530" type="line"/>
      <point x="500" y="-157" type="line"/>
      <point x="418" y="-157" type="line"/>
      <point x="418" y="59" type="line"/>
      <point x="373" y="15"/>
      <point x="315" y="-5"/>
      <point x="262" y="-5" type="curve" smooth="yes"/>
      <point x="119" y="-5"/>
      <point x="31" y="138"/>
      <point x="31" y="266" type="curve" smooth="yes"/>
      <point x="31" y="396"/>
      <point x="119" y="535"/>
      <point x="263" y="535" type="curve" smooth="yes"/>
      <point x="317" y="535"/>
      <point x="372" y="516"/>
    </contour>
  </outline>
</glyph>
<glyph name="r" format="2">
  <advance width="354"/>
  <unicode hex="0072"/>
  <outline>
    <contour>
      <point x="304" y="530" type="curve" smooth="yes"/>
      <point x="316" y="530" type="line"/>
      <point x="316" y="437" type="line"/>
      <point x="304" y="437" type="line"/>
      <point x="217" y="437"/>
      <point x="142" y="391"/>
      <point x="142" y="251" type="curve" smooth="yes"/>
      <point x="142" y="0" type="line"/>
      <point x="59" y="0" type="line"/>
      <point x="59" y="530" type="line"/>
      <point x="142" y="530" type="line"/>
      <point x="142" y="472" type="line"/>
      <point x="190" y="515"/>
      <point x="252" y="530"/>
    </contour>
  </outline>
  <guideline angle="0" x="0" y="518"/>
</glyph>
<glyph name="s" format="2">
  <advance width="480"/>
  <unicode hex="0073"/>
  <outline>
    <contour>
      <point x="39" y="180" type="curve" smooth="yes"/>
      <point x="39" y="186"/>
      <point x="39" y="192"/>
      <point x="40" y="198" type="curve" smooth="yes"/>
      <point x="41" y="214" type="line"/>
      <point x="123" y="207" type="line"/>
      <point x="121" y="188" type="line" smooth="yes"/>
      <point x="121" y="185"/>
      <point x="121" y="183"/>
      <point x="121" y="180" type="curve" smooth="yes"/>
      <point x="121" y="116"/>
      <point x="195" y="89"/>
      <point x="249" y="89" type="curve" smooth="yes"/>
      <point x="292" y="89"/>
      <point x="359" y="106"/>
      <point x="359" y="158" type="curve" smooth="yes"/>
      <point x="359" y="178"/>
      <point x="349" y="194"/>
      <point x="320" y="208" type="curve" smooth="yes"/>
      <point x="297" y="219"/>
      <point x="267" y="227"/>
      <point x="238" y="234" type="curve" smooth="yes"/>
      <point x="152" y="256"/>
      <point x="56" y="282"/>
      <point x="56" y="387" type="curve" smooth="yes"/>
      <point x="56" y="491"/>
      <point x="146" y="536"/>
      <point x="233" y="536" type="curve" smooth="yes"/>
      <point x="302" y="536"/>
      <point x="428" y="507"/>
      <point x="428" y="355" type="curve" smooth="yes"/>
      <point x="428" y="337" type="line"/>
      <point x="346" y="337" type="line"/>
      <point x="346" y="355" type="line" smooth="yes"/>
      <point x="346" y="418"/>
      <point x="297" y="443"/>
      <point x="243" y="443" type="curve" smooth="yes"/>
      <point x="205" y="443"/>
      <point x="138" y="431"/>
      <point x="138" y="391" type="curve" smooth="yes"/>
      <point x="138" y="367"/>
      <point x="160" y="355"/>
      <point x="177" y="348" type="curve" smooth="yes"/>
      <point x="198" y="339"/>
      <point x="224" y="332"/>
      <point x="251" y="326" type="curve" smooth="yes"/>
      <point x="345" y="302"/>
      <point x="442" y="275"/>
      <point x="442" y="161" type="curve" smooth="yes"/>
      <point x="442" y="50"/>
      <point x="349" y="-4"/>
      <point x="250" y="-4" type="curve" smooth="yes"/>
      <point x="139" y="-4"/>
      <point x="39" y="63"/>
    </contour>
  </outline>
</glyph>
<glyph name="t" format="2">
  <advance width="331"/>
  <unicode hex="0074"/>
  <outline>
    <contour>
      <point x="293" y="0" type="line"/>
      <point x="257" y="0" type="line" smooth="yes"/>
      <point x="213" y="0"/>
      <point x="120" y="34"/>
      <point x="120" y="140" type="curve"/>
      <point x="120" y="437" type="line"/>
      <point x="39" y="437" type="line"/>
      <point x="39" y="530" type="line"/>
      <point x="120" y="530" type="line"/>
      <point x="120" y="688" type="line"/>
      <point x="202" y="688" type="line"/>
      <point x="202" y="530" type="line"/>
      <point x="287" y="530" type="line"/>
      <point x="287" y="437" type="line"/>
      <point x="202" y="437" type="line"/>
      <point x="202" y="140" type="line"/>
      <point x="202" y="113"/>
      <point x="231" y="93"/>
      <point x="257" y="93" type="curve" smooth="yes"/>
      <point x="293" y="93" type="line"/>
    </contour>
  </outline>
</glyph>
<glyph name="u" format="2">
  <advance width="533"/>
  <unicode hex="0075"/>
  <outline>
    <contour>
      <point x="474" y="530" type="line"/>
      <point x="474" y="0" type="line"/>
      <point x="392" y="0" type="line"/>
      <point x="392" y="51" type="line"/>
      <point x="347" y="11"/>
      <point x="290" y="-5"/>
      <point x="247" y="-5" type="curve" smooth="yes"/>
      <point x="177" y="-5"/>
      <point x="39" y="37"/>
      <point x="39" y="189" type="curve" smooth="yes"/>
      <point x="39" y="530" type="line"/>
      <point x="121" y="530" type="line"/>
      <point x="121" y="189" type="line" smooth="yes"/>
      <point x="121" y="121"/>
      <point x="188" y="88"/>
      <point x="235" y="88" type="curve" smooth="yes"/>
      <point x="320" y="88"/>
      <point x="392" y="134"/>
      <point x="392" y="271" type="curve" smooth="yes"/>
      <point x="392" y="530" type="line"/>
    </contour>
  </outline>
</glyph>
<glyph name="v" format="2">
  <advance width="511"/>
  <unicode hex="0076"/>
  <outline>
    <contour>
      <point x="476" y="530" type="line"/>
      <point x="494" y="523" type="line"/>
      <point x="290" y="0" type="line"/>
      <point x="222" y="0" type="line"/>
      <point x="18" y="523" type="line"/>
      <point x="36" y="530" type="line"/>
      <point x="105" y="530" type="line"/>
      <point x="256" y="143" type="line"/>
      <point x="407" y="530" type="line"/>
    </contour>
  </outline>
</glyph>
<glyph name="w" format="2">
  <advance width="774"/>
  <unicode hex="0077"/>
  <outline>
    <contour>
      <point x="757" y="530" type="line"/>
      <point x="582" y="0" type="line"/>
      <point x="512" y="0" type="line"/>
      <point x="387" y="379" type="line"/>
      <point x="262" y="0" type="line"/>
      <point x="193" y="0" type="line"/>
      <point x="18" y="530" type="line"/>
      <point x="106" y="530" type="line"/>
      <point x="228" y="161" type="line"/>
      <point x="349" y="530" type="line"/>
      <point x="426" y="530" type="line"/>
      <point x="547" y="161" type="line"/>
      <point x="669" y="530" type="line"/>
    </contour>
  </outline>
</glyph>
<glyph name="x" format="2">
  <advance width="569"/>
  <unicode hex="0078"/>
  <outline>
    <contour>
      <point x="427" y="530" type="line"/>
      <point x="537" y="530" type="line"/>
      <point x="340" y="275" type="line"/>
      <point x="552" y="0" type="line"/>
      <point x="442" y="0" type="line"/>
      <point x="285" y="204" type="line"/>
      <point x="128" y="0" type="line"/>
      <point x="18" y="0" type="line"/>
      <point x="230" y="275" type="line"/>
      <point x="33" y="530" type="line"/>
      <point x="143" y="530" type="line"/>
      <point x="285" y="346" type="line"/>
    </contour>
  </outline>
</glyph>
<glyph name="y" format="2">
  <advance width="518"/>
  <unicode hex="0079"/>
  <outline>
    <contour>
      <point x="501" y="530" type="line"/>
      <point x="266" y="-74" type="line" smooth="yes"/>
      <point x="241" y="-136"/>
      <point x="184" y="-157"/>
      <point x="144" y="-157" type="curve" smooth="yes"/>
      <point x="87" y="-157" type="line"/>
      <point x="87" y="-64" type="line"/>
      <point x="99" y="-64" type="line" smooth="yes"/>
      <point x="113" y="-64"/>
      <point x="134" y="-67"/>
      <point x="153" y="-63" type="curve" smooth="yes"/>
      <point x="171" y="-60"/>
      <point x="184" y="-51"/>
      <point x="191" y="-35" type="curve" smooth="yes"/>
      <point x="199" y="-15"/>
      <point x="207" y="6"/>
      <point x="215" y="26" type="curve"/>
      <point x="18" y="530" type="line"/>
      <point x="108" y="530" type="line"/>
      <point x="260" y="141" type="line"/>
      <point x="411" y="530" type="line"/>
    </contour>
  </outline>
</glyph>
<glyph name="z" format="2">
  <advance width="508"/>
  <unicode hex="007A"/>
  <outline>
    <contour>
      <point x="166" y="94" type="line"/>
      <point x="470" y="94" type="line"/>
      <point x="470" y="0" type="line"/>
      <point x="39" y="0" type="line"/>
      <point x="39" y="78" type="line"/>
      <point x="340" y="438" type="line"/>
      <point x="72" y="438" type="line"/>
      <point x="72" y="531" type="line"/>
      <point x="467" y="531" type="line"/>
      <point x="467" y="454" type="line"/>
    </contour>
  </outline>
</glyph>
<glyph name="braceleft" format="2">
  <advance width="256"/>
  <unicode hex="007B"/>
  <outline>
    <contour>
      <point x="181" y="90" type="curve" smooth="yes"/>
      <point x="181" y="-29" type="line" smooth="yes"/>
      <point x="181" y="-51"/>
      <point x="207" y="-64"/>
      <point x="227" y="-64" type="curve" smooth="yes"/>
      <point x="239" y="-64" type="line"/>
      <point x="239" y="-157" type="line"/>
      <point x="227" y="-157" type="line" smooth="yes"/>
      <point x="188" y="-157"/>
      <point x="99" y="-128"/>
      <point x="99" y="-29" type="curve" smooth="yes"/>
      <point x="99" y="90" type="line" smooth="yes"/>
      <point x="99" y="168"/>
      <point x="91" y="218"/>
      <point x="44" y="218" type="curve"/>
      <point x="31" y="218" type="line"/>
      <point x="31" y="312" type="line"/>
      <point x="44" y="312" type="line"/>
      <point x="91" y="312"/>
      <point x="99" y="363"/>
      <point x="99" y="441" type="curve" smooth="yes"/>
      <point x="99" y="559" type="line" smooth="yes"/>
      <point x="99" y="658"/>
      <point x="188" y="688"/>
      <point x="227" y="688" type="curve" smooth="yes"/>
      <point x="239" y="688" type="line"/>
      <point x="239" y="594" type="line"/>
      <point x="227" y="594" type="line" smooth="yes"/>
      <point x="207" y="594"/>
      <point x="181" y="581"/>
      <point x="181" y="559" type="curve" smooth="yes"/>
      <point x="181" y="441" type="line" smooth="yes"/>
      <point x="181" y="378"/>
      <point x="177" y="311"/>
      <point x="141" y="265" type="curve"/>
      <point x="177" y="220"/>
      <point x="181" y="153"/>
    </contour>
  </outline>
</glyph>
<glyph name="bar" format="2">
  <advance width="201"/>
  <unicode hex="007C"/>
  <outline>
    <contour>
      <point x="142" y="-157" type="line"/>
      <point x="59" y="-157" type="line"/>
      <point x="59" y="688" type="line"/>
      <point x="142" y="688" type="line"/>
    </contour>
  </outline>
</glyph>
<glyph name="braceright" format="2">
  <advance width="256"/>
  <unicode hex="007D"/>
  <outline>
    <contour>
      <point x="225" y="218" type="line"/>
      <point x="213" y="218" type="line"/>
      <point x="165" y="218"/>
      <point x="158" y="169"/>
      <point x="158" y="90" type="curve" smooth="yes"/>
      <point x="158" y="-29" type="line" smooth="yes"/>
      <point x="158" y="-128"/>
      <point x="69" y="-157"/>
      <point x="30" y="-157" type="curve" smooth="yes"/>
      <point x="18" y="-157" type="line"/>
      <point x="18" y="-64" type="line"/>
      <point x="30" y="-64" type="line" smooth="yes"/>
      <point x="50" y="-64"/>
      <point x="76" y="-51"/>
      <point x="76" y="-29" type="curve" smooth="yes"/>
      <point x="76" y="90" type="line" smooth="yes"/>
      <point x="76" y="154"/>
      <point x="80" y="219"/>
      <point x="116" y="265" type="curve"/>
      <point x="80" y="311"/>
      <point x="76" y="377"/>
      <point x="76" y="441" type="curve" smooth="yes"/>
      <point x="76" y="559" type="line" smooth="yes"/>
      <point x="76" y="581"/>
      <point x="50" y="594"/>
      <point x="30" y="594" type="curve" smooth="yes"/>
      <point x="18" y="594" type="line"/>
      <point x="18" y="688" type="line"/>
      <point x="30" y="688" type="line" smooth="yes"/>
      <point x="69" y="688"/>
      <point x="158" y="658"/>
      <point x="158" y="559" type="curve" smooth="yes"/>
      <point x="158" y="441" type="line" smooth="yes"/>
      <point x="158" y="362"/>
      <point x="165" y="312"/>
      <point x="213" y="312" type="curve"/>
      <point x="225" y="312" type="line"/>
    </contour>
  </outline>
</glyph>
<glyph name="asciitilde" format="2">
  <advance width="369"/>
  <unicode hex="007E"/>
  <outline>
    <contour>
      <point x="348" y="224" type="line"/>
      <point x="340" y="220" type="line" smooth="yes"/>
      <point x="318" y="208"/>
      <point x="296" y="202"/>
      <point x="273" y="202" type="curve" smooth="yes"/>
      <point x="240" y="202"/>
      <point x="208" y="215"/>
      <point x="181" y="227" type="curve" smooth="yes"/>
      <point x="177" y="228" type="line" smooth="yes"/>
      <point x="162" y="235"/>
      <point x="149" y="240"/>
      <point x="136" y="245" type="curve" smooth="yes"/>
      <point x="123" y="249"/>
      <point x="110" y="252"/>
      <point x="99" y="252" type="curve" smooth="yes"/>
      <point x="78" y="252"/>
      <point x="55" y="241"/>
      <point x="40" y="223" type="curve" smooth="yes"/>
      <point x="21" y="202" type="line"/>
      <point x="21" y="323" type="line"/>
      <point x="29" y="327" type="line" smooth="yes"/>
      <point x="51" y="339"/>
      <point x="74" y="345"/>
      <point x="97" y="345" type="curve" smooth="yes"/>
      <point x="129" y="345"/>
      <point x="161" y="332"/>
      <point x="189" y="320" type="curve" smooth="yes"/>
      <point x="192" y="319" type="line" smooth="yes"/>
      <point x="208" y="313"/>
      <point x="221" y="307"/>
      <point x="234" y="303" type="curve" smooth="yes"/>
      <point x="247" y="298"/>
      <point x="260" y="295"/>
      <point x="271" y="295" type="curve" smooth="yes"/>
      <point x="292" y="295"/>
      <point x="313" y="306"/>
      <point x="329" y="323" type="curve" smooth="yes"/>
      <point x="348" y="344" type="line"/>
    </contour>
  </outline>
</glyph>
<glyph name="dieresis" format="2">
  <advance width="288"/>
  <unicode hex="00A8"/>
  <outline>
    <contour>
      <point x="271" y="628" type="line"/>
      <point x="159" y="628" type="line"/>
      <point x="159" y="753" type="line"/>
      <point x="271" y="753" type="line"/>
    </contour>
    <contour>
      <point x="129" y="628" type="line"/>
      <point x="18" y="628" type="line"/>
      <point x="18" y="753" type="line"/>
      <point x="129" y="753" type="line"/>
    </contour>
  </outline>
</glyph>
<glyph name="copyright" format="2">
  <advance width="433"/>
  <unicode hex="00A9"/>
  <outline>
    <contour>
      <point x="221" y="148" type="curve" smooth="yes"/>
      <point x="159" y="148"/>
      <point x="109" y="197"/>
      <point x="109" y="259" type="curve" smooth="yes"/>
      <point x="109" y="321"/>
      <point x="159" y="370"/>
      <point x="219" y="370" type="curve" smooth="yes"/>
      <point x="264" y="370"/>
      <point x="305" y="343"/>
      <point x="324" y="302" type="curve"/>
      <point x="274" y="278" type="line"/>
      <point x="263" y="301"/>
      <point x="242" y="315"/>
      <point x="220" y="315" type="curve" smooth="yes"/>
      <point x="190" y="315"/>
      <point x="164" y="290"/>
      <point x="164" y="259" type="curve" smooth="yes"/>
      <point x="164" y="228"/>
      <point x="190" y="203"/>
      <point x="220" y="203" type="curve" smooth="yes"/>
      <point x="242" y="203"/>
      <point x="263" y="217"/>
      <point x="274" y="239" type="curve"/>
      <point x="324" y="214" type="line"/>
      <point x="302" y="173"/>
      <point x="265" y="148"/>
    </contour>
    <contour>
      <point x="217" y="389" type="curve" smooth="yes"/>
      <point x="145" y="389"/>
      <point x="87" y="330"/>
      <point x="87" y="259" type="curve" smooth="yes"/>
      <point x="87" y="188"/>
      <point x="145" y="129"/>
      <point x="217" y="129" type="curve" smooth="yes"/>
      <point x="288" y="129"/>
      <point x="347" y="188"/>
      <point x="347" y="259" type="curve" smooth="yes"/>
      <point x="347" y="330"/>
      <point x="288" y="389"/>
    </contour>
    <contour>
      <point x="217" y="74" type="curve" smooth="yes"/>
      <point x="115" y="74"/>
      <point x="31" y="157"/>
      <point x="31" y="259" type="curve" smooth="yes"/>
      <point x="31" y="361"/>
      <point x="115" y="444"/>
      <point x="217" y="444" type="curve" smooth="yes"/>
      <point x="319" y="444"/>
      <point x="402" y="361"/>
      <point x="402" y="259" type="curve" smooth="yes"/>
      <point x="402" y="157"/>
      <point x="319" y="74"/>
    </contour>
  </outline>
</glyph>
<glyph name="macron" format="2">
  <advance width="395"/>
  <unicode hex="00AF"/>
  <outline>
    <contour>
      <point x="378" y="590" type="line"/>
      <point x="18" y="590" type="line"/>
      <point x="18" y="683" type="line"/>
      <point x="378" y="683" type="line"/>
    </contour>
  </outline>
</glyph>
<glyph name="alef" format="2">
  <advance width="631"/>
  <unicode hex="05D0"/>
  <outline>
    <contour>
      <point x="600" y="16" type="line"/>
      <point x="584" y="3" type="line"/>
      <point x="583" y="2"/>
      <point x="579" y="0"/>
      <point x="577" y="0" type="curve"/>
      <point x="498" y="0" type="line"/>
      <point x="214" y="323" type="line"/>
      <point x="163" y="242"/>
      <point x="134" y="131"/>
      <point x="134" y="18" type="curve" smooth="yes"/>
      <point x="134" y="0" type="line"/>
      <point x="51" y="0" type="line"/>
      <point x="51" y="18" type="line" smooth="yes"/>
      <point x="51" y="155"/>
      <point x="91" y="295"/>
      <point x="155" y="390" type="curve"/>
      <point x="31" y="531" type="line"/>
      <point x="148" y="531" type="line"/>
      <point x="409" y="234" type="line"/>
      <point x="457" y="313"/>
      <point x="467" y="402"/>
      <point x="467" y="513" type="curve"/>
      <point x="467" y="531" type="line"/>
      <point x="550" y="531" type="line"/>
      <point x="550" y="513" type="line"/>
      <point x="550" y="377"/>
      <point x="533" y="265"/>
      <point x="468" y="166" type="curve"/>
    </contour>
  </outline>
</glyph>
<glyph name="bet" format="2">
  <advance width="503"/>
  <unicode hex="05D1"/>
  <outline>
    <contour>
      <point x="472" y="93" type="line"/>
      <point x="472" y="0" type="line"/>
      <point x="31" y="0" type="line"/>
      <point x="31" y="93" type="line"/>
      <point x="342" y="93" type="line"/>
      <point x="342" y="304" type="line"/>
      <point x="342" y="393"/>
      <point x="257" y="437"/>
      <point x="199" y="437" type="curve" smooth="yes"/>
      <point x="31" y="437" type="line"/>
      <point x="31" y="530" type="line"/>
      <point x="199" y="530" type="line" smooth="yes"/>
      <point x="325" y="530"/>
      <point x="424" y="427"/>
      <point x="424" y="304" type="curve"/>
      <point x="424" y="93" type="line"/>
    </contour>
  </outline>
</glyph>
<glyph name="gimel" format="2">
  <advance width="403"/>
  <unicode hex="05D2"/>
  <outline>
    <contour>
      <point x="228" y="246" type="curve"/>
      <point x="222" y="274" type="line" smooth="yes"/>
      <point x="218" y="292"/>
      <point x="213" y="316"/>
      <point x="207" y="341" type="curve" smooth="yes"/>
      <point x="199" y="379"/>
      <point x="191" y="418"/>
      <point x="187" y="437" type="curve"/>
      <point x="80" y="437" type="line"/>
      <point x="80" y="530" type="line"/>
      <point x="251" y="530" type="line"/>
      <point x="365" y="0" type="line"/>
      <point x="280" y="0" type="line"/>
      <point x="258" y="105" type="line"/>
      <point x="200" y="32"/>
      <point x="114" y="0"/>
      <point x="44" y="0" type="curve" smooth="yes"/>
      <point x="31" y="0" type="line"/>
      <point x="31" y="93" type="line"/>
      <point x="44" y="93" type="line" smooth="yes"/>
      <point x="127" y="93"/>
      <point x="228" y="160"/>
    </contour>
  </outline>
</glyph>
<glyph name="dalet" format="2">
  <advance width="454"/>
  <unicode hex="05D3"/>
  <outline>
    <contour>
      <point x="437" y="437" type="line"/>
      <point x="386" y="437" type="line"/>
      <point x="386" y="0" type="line"/>
      <point x="304" y="0" type="line"/>
      <point x="304" y="437" type="line"/>
      <point x="18" y="437" type="line"/>
      <point x="18" y="530" type="line"/>
      <point x="437" y="530" type="line"/>
    </contour>
  </outline>
</glyph>
<glyph name="he" format="2">
  <advance width="522"/>
  <unicode hex="05D4"/>
  <outline>
    <contour>
      <point x="470" y="0" type="line"/>
      <point x="388" y="0" type="line"/>
      <point x="388" y="305" type="line" smooth="yes"/>
      <point x="388" y="393"/>
      <point x="303" y="437"/>
      <point x="246" y="437" type="curve" smooth="yes"/>
      <point x="39" y="437" type="line"/>
      <point x="39" y="530" type="line"/>
      <point x="246" y="530" type="line" smooth="yes"/>
      <point x="371" y="530"/>
      <point x="470" y="428"/>
      <point x="470" y="305" type="curve" smooth="yes"/>
    </contour>
    <contour>
      <point x="125" y="0" type="line"/>
      <point x="43" y="0" type="line"/>
      <point x="43" y="319" type="line"/>
      <point x="125" y="319" type="line"/>
    </contour>
  </outline>
</glyph>
<glyph name="vav" format="2">
  <advance width="201"/>
  <unicode hex="05D5"/>
  <outline>
    <contour>
      <point x="142" y="0" type="line"/>
      <point x="59" y="0" type="line"/>
      <point x="59" y="530" type="line"/>
      <point x="142" y="530" type="line"/>
    </contour>
  </outline>
</glyph>
<glyph name="zayin" format="2">
  <advance width="343"/>
  <unicode hex="05D6"/>
  <outline>
    <contour>
      <point x="262" y="0" type="line"/>
      <point x="180" y="0" type="line"/>
      <point x="180" y="297" type="line" smooth="yes"/>
      <point x="180" y="400"/>
      <point x="95" y="437"/>
      <point x="30" y="437" type="curve" smooth="yes"/>
      <point x="18" y="437" type="line"/>
      <point x="18" y="530" type="line"/>
      <point x="312" y="530" type="line"/>
      <point x="312" y="437" type="line"/>
      <point x="220" y="437" type="line"/>
      <point x="245" y="402"/>
      <point x="262" y="355"/>
      <point x="262" y="297" type="curve"/>
    </contour>
  </outline>
</glyph>
<glyph name="het" format="2">
  <advance width="549"/>
  <unicode hex="05D7"/>
  <outline>
    <contour>
      <point x="497" y="0" type="line"/>
      <point x="415" y="0" type="line"/>
      <point x="415" y="305" type="line" smooth="yes"/>
      <point x="415" y="393"/>
      <point x="330" y="437"/>
      <point x="273" y="437" type="curve"/>
      <point x="142" y="437" type="line"/>
      <point x="142" y="0" type="line"/>
      <point x="59" y="0" type="line"/>
      <point x="59" y="530" type="line"/>
      <point x="273" y="530" type="line" smooth="yes"/>
      <point x="398" y="530"/>
      <point x="497" y="428"/>
      <point x="497" y="305" type="curve" smooth="yes"/>
    </contour>
  </outline>
</glyph>
<glyph name="tet" format="2">
  <advance width="572"/>
  <unicode hex="05D8"/>
  <outline>
    <contour>
      <point x="53" y="278" type="curve" smooth="yes"/>
      <point x="53" y="530" type="line"/>
      <point x="135" y="530" type="line"/>
      <point x="135" y="278" type="line" smooth="yes"/>
      <point x="135" y="151"/>
      <point x="219" y="88"/>
      <point x="298" y="88" type="curve" smooth="yes"/>
      <point x="375" y="88"/>
      <point x="452" y="145"/>
      <point x="452" y="266" type="curve" smooth="yes"/>
      <point x="452" y="389"/>
      <point x="372" y="437"/>
      <point x="295" y="437" type="curve"/>
      <point x="283" y="437" type="line"/>
      <point x="283" y="530" type="line"/>
      <point x="295" y="530" type="line"/>
      <point x="392" y="530"/>
      <point x="534" y="467"/>
      <point x="534" y="268" type="curve" smooth="yes"/>
      <point x="534" y="72"/>
      <point x="399" y="-5"/>
      <point x="288" y="-5" type="curve" smooth="yes"/>
      <point x="137" y="-5"/>
      <point x="53" y="140"/>
    </contour>
  </outline>
</glyph>
<glyph name="yod" format="2">
  <advance width="159"/>
  <unicode hex="05D9"/>
  <outline>
    <contour>
      <point x="121" y="284" type="line"/>
      <point x="39" y="284" type="line"/>
      <point x="39" y="530" type="line"/>
      <point x="121" y="530" type="line"/>
    </contour>
  </outline>
</glyph>
<glyph name="uni05DA" format="2">
  <advance width="438"/>
  <unicode hex="05DA"/>
  <outline>
    <contour>
      <point x="386" y="-157" type="line"/>
      <point x="304" y="-157" type="line"/>
      <point x="304" y="305" type="line" smooth="yes"/>
      <point x="304" y="393"/>
      <point x="219" y="437"/>
      <point x="162" y="437" type="curve" smooth="yes"/>
      <point x="18" y="437" type="line"/>
      <point x="18" y="530" type="line"/>
      <point x="162" y="530" type="line" smooth="yes"/>
      <point x="288" y="530"/>
      <point x="386" y="428"/>
      <point x="386" y="305" type="curve"/>
    </contour>
  </outline>
</glyph>
<glyph name="kaf" format="2">
  <advance width="462"/>
  <unicode hex="05DB"/>
  <outline>
    <contour>
      <point x="18" y="0" type="line"/>
      <point x="18" y="93" type="line"/>
      <point x="178" y="93" type="line" smooth="yes"/>
      <point x="248" y="93"/>
      <point x="342" y="152"/>
      <point x="342" y="264" type="curve" smooth="yes"/>
      <point x="342" y="377"/>
      <point x="249" y="437"/>
      <point x="178" y="437" type="curve" smooth="yes"/>
      <point x="18" y="437" type="line"/>
      <point x="18" y="530" type="line"/>
      <point x="178" y="530" type="line" smooth="yes"/>
      <point x="321" y="530"/>
      <point x="424" y="402"/>
      <point x="424" y="264" type="curve" smooth="yes"/>
      <point x="424" y="127"/>
      <point x="323" y="0"/>
      <point x="178" y="0" type="curve" smooth="yes"/>
    </contour>
  </outline>
</glyph>
<glyph name="lamed" format="2">
  <advance width="454"/>
  <unicode hex="05DC"/>
  <outline>
    <contour>
      <point x="311" y="437" type="line"/>
      <point x="18" y="437" type="line"/>
      <point x="18" y="688" type="line"/>
      <point x="100" y="688" type="line"/>
      <point x="100" y="530" type="line"/>
      <point x="437" y="530" type="line"/>
      <point x="229" y="0" type="line"/>
      <point x="138" y="0" type="line"/>
    </contour>
  </outline>
</glyph>
<glyph name="uni05DD" format="2">
  <advance width="544"/>
  <unicode hex="05DD"/>
  <outline>
    <contour>
      <point x="142" y="93" type="line"/>
      <point x="410" y="93" type="line"/>
      <point x="410" y="305" type="line"/>
      <point x="410" y="393"/>
      <point x="325" y="437"/>
      <point x="267" y="437" type="curve"/>
      <point x="142" y="437" type="line"/>
    </contour>
    <contour>
      <point x="492" y="0" type="line"/>
      <point x="59" y="0" type="line"/>
      <point x="59" y="530" type="line"/>
      <point x="267" y="530" type="line" smooth="yes"/>
      <point x="393" y="530"/>
      <point x="492" y="428"/>
      <point x="492" y="305" type="curve"/>
    </contour>
  </outline>
</glyph>
<glyph name="mem" format="2">
  <advance width="593"/>
  <unicode hex="05DE"/>
  <outline>
    <contour>
      <point x="541" y="279" type="curve" smooth="yes"/>
      <point x="541" y="133"/>
      <point x="453" y="0"/>
      <point x="300" y="0" type="curve" smooth="yes"/>
      <point x="288" y="0" type="line"/>
      <point x="288" y="93" type="line"/>
      <point x="300" y="93" type="line" smooth="yes"/>
      <point x="374" y="93"/>
      <point x="459" y="149"/>
      <point x="459" y="269" type="curve" smooth="yes"/>
      <point x="459" y="388"/>
      <point x="375" y="442"/>
      <point x="298" y="442" type="curve" smooth="yes"/>
      <point x="223" y="442"/>
      <point x="142" y="390"/>
      <point x="142" y="268" type="curve" smooth="yes"/>
      <point x="142" y="1" type="line"/>
      <point x="59" y="1" type="line"/>
      <point x="59" y="531" type="line"/>
      <point x="142" y="531" type="line"/>
      <point x="142" y="475" type="line"/>
      <point x="189" y="519"/>
      <point x="247" y="535"/>
      <point x="295" y="535" type="curve" smooth="yes"/>
      <point x="396" y="535"/>
      <point x="541" y="466"/>
    </contour>
  </outline>
</glyph>
<glyph name="uni05DF" format="2">
  <advance width="201"/>
  <unicode hex="05DF"/>
  <outline>
    <contour>
      <point x="142" y="-157" type="line"/>
      <point x="59" y="-157" type="line"/>
      <point x="59" y="530" type="line"/>
      <point x="142" y="530" type="line"/>
    </contour>
  </outline>
</glyph>
<glyph name="nun" format="2">
  <advance width="295"/>
  <unicode hex="05E0"/>
  <outline>
    <contour>
      <point x="18" y="0" type="line"/>
      <point x="18" y="93" type="line"/>
      <point x="81" y="93" type="line" smooth="yes"/>
      <point x="120" y="93"/>
      <point x="174" y="123"/>
      <point x="174" y="177" type="curve" smooth="yes"/>
      <point x="174" y="437" type="line"/>
      <point x="93" y="437" type="line"/>
      <point x="93" y="530" type="line"/>
      <point x="256" y="530" type="line"/>
      <point x="256" y="177" type="line" smooth="yes"/>
      <point x="256" y="44"/>
      <point x="138" y="0"/>
      <point x="81" y="0" type="curve" smooth="yes"/>
    </contour>
  </outline>
</glyph>
<glyph name="samekh" format="2">
  <advance width="572"/>
  <unicode hex="05E1"/>
  <outline>
    <contour>
      <point x="135" y="437" type="line"/>
      <point x="135" y="278" type="line" smooth="yes"/>
      <point x="135" y="151"/>
      <point x="219" y="88"/>
      <point x="298" y="88" type="curve" smooth="yes"/>
      <point x="375" y="88"/>
      <point x="452" y="145"/>
      <point x="452" y="266" type="curve" smooth="yes"/>
      <point x="452" y="389"/>
      <point x="372" y="437"/>
      <point x="295" y="437" type="curve"/>
    </contour>
    <contour>
      <point x="53" y="278" type="curve" smooth="yes"/>
      <point x="53" y="530" type="line"/>
      <point x="295" y="530" type="line" smooth="yes"/>
      <point x="392" y="530"/>
      <point x="534" y="468"/>
      <point x="534" y="268" type="curve" smooth="yes"/>
      <point x="534" y="73"/>
      <point x="399" y="-5"/>
      <point x="289" y="-5" type="curve" smooth="yes"/>
      <point x="137" y="-5"/>
      <point x="53" y="141"/>
    </contour>
  </outline>
</glyph>
<glyph name="ayin" format="2">
  <advance width="504"/>
  <unicode hex="05E2"/>
  <outline>
    <contour>
      <point x="473" y="530" type="line"/>
      <point x="473" y="430" type="line" smooth="yes"/>
      <point x="473" y="44"/>
      <point x="233" y="-34"/>
      <point x="38" y="-52" type="curve" smooth="yes"/>
      <point x="27" y="-53" type="line"/>
      <point x="18" y="40" type="line"/>
      <point x="31" y="41" type="line" smooth="yes"/>
      <point x="69" y="45"/>
      <point x="108" y="51"/>
      <point x="146" y="61" type="curve"/>
      <point x="33" y="530" type="line"/>
      <point x="119" y="530" type="line"/>
      <point x="224" y="90" type="line"/>
      <point x="334" y="146"/>
      <point x="391" y="248"/>
      <point x="391" y="430" type="curve" smooth="yes"/>
      <point x="391" y="530" type="line"/>
    </contour>
  </outline>
</glyph>
<glyph name="uni05E3" format="2">
  <advance width="471"/>
  <unicode hex="05E3"/>
  <outline>
    <contour>
      <point x="419" y="-157" type="line"/>
      <point x="337" y="-157" type="line"/>
      <point x="337" y="305" type="line" smooth="yes"/>
      <point x="337" y="393"/>
      <point x="252" y="437"/>
      <point x="195" y="437" type="curve"/>
      <point x="121" y="437" type="line"/>
      <point x="121" y="236" type="line"/>
      <point x="39" y="236" type="line"/>
      <point x="39" y="530" type="line"/>
      <point x="195" y="530" type="line" smooth="yes"/>
      <point x="320" y="530"/>
      <point x="419" y="428"/>
      <point x="419" y="305" type="curve"/>
    </contour>
  </outline>
</glyph>
<glyph name="pe" format="2">
  <advance width="551"/>
  <unicode hex="05E4"/>
  <outline>
    <contour>
      <point x="513" y="279" type="curve" smooth="yes"/>
      <point x="513" y="133"/>
      <point x="425" y="0"/>
      <point x="272" y="0" type="curve" smooth="yes"/>
      <point x="142" y="0" type="line"/>
      <point x="142" y="93" type="line"/>
      <point x="272" y="93" type="line" smooth="yes"/>
      <point x="346" y="93"/>
      <point x="431" y="149"/>
      <point x="431" y="269" type="curve" smooth="yes"/>
      <point x="431" y="388"/>
      <point x="347" y="442"/>
      <point x="272" y="442" type="curve" smooth="yes"/>
      <point x="196" y="442"/>
      <point x="114" y="390"/>
      <point x="114" y="269" type="curve" smooth="yes"/>
      <point x="114" y="256"/>
      <point x="115" y="243"/>
      <point x="117" y="231" type="curve" smooth="yes"/>
      <point x="121" y="208" type="line"/>
      <point x="37" y="208" type="line"/>
      <point x="35" y="223" type="line" smooth="yes"/>
      <point x="33" y="238"/>
      <point x="31" y="254"/>
      <point x="31" y="270" type="curve" smooth="yes"/>
      <point x="31" y="465"/>
      <point x="175" y="535"/>
      <point x="272" y="535" type="curve" smooth="yes"/>
      <point x="368" y="535"/>
      <point x="513" y="466"/>
    </contour>
  </outline>
</glyph>
<glyph name="uni05E5" format="2">
  <advance width="571"/>
  <unicode hex="05E5"/>
  <outline>
    <contour>
      <point x="331" y="181" type="line"/>
      <point x="528" y="-157" type="line"/>
      <point x="430" y="-157" type="line"/>
      <point x="28" y="530" type="line"/>
      <point x="127" y="530" type="line"/>
      <point x="282" y="265" type="line"/>
      <point x="443" y="530" type="line"/>
      <point x="543" y="530" type="line"/>
    </contour>
  </outline>
</glyph>
<glyph name="tsadi" format="2">
  <advance width="541"/>
  <unicode hex="05E6"/>
  <outline>
    <contour>
      <point x="50" y="93" type="line"/>
      <point x="343" y="93" type="line"/>
      <point x="224" y="190"/>
      <point x="100" y="327"/>
      <point x="29" y="503" type="curve" smooth="yes"/>
      <point x="18" y="530" type="line"/>
      <point x="109" y="530" type="line"/>
      <point x="112" y="523" type="line" smooth="yes"/>
      <point x="160" y="414"/>
      <point x="230" y="323"/>
      <point x="303" y="250" type="curve"/>
      <point x="357" y="320"/>
      <point x="403" y="413"/>
      <point x="422" y="517" type="curve" smooth="yes"/>
      <point x="425" y="530" type="line"/>
      <point x="508" y="530" type="line"/>
      <point x="504" y="508" type="line" smooth="yes"/>
      <point x="484" y="383"/>
      <point x="429" y="272"/>
      <point x="366" y="190" type="curve"/>
      <point x="410" y="152"/>
      <point x="456" y="118"/>
      <point x="502" y="90" type="curve" smooth="yes"/>
      <point x="510" y="86" type="line"/>
      <point x="510" y="0" type="line"/>
      <point x="50" y="0" type="line"/>
    </contour>
  </outline>
</glyph>
<glyph name="qof" format="2">
  <advance width="505"/>
  <unicode hex="05E7"/>
  <outline>
    <contour>
      <point x="36" y="376" type="line"/>
      <point x="119" y="376" type="line"/>
      <point x="119" y="-157" type="line"/>
      <point x="36" y="-157" type="line"/>
    </contour>
    <contour>
      <point x="453" y="530" type="line"/>
      <point x="453" y="280" type="line" smooth="yes"/>
      <point x="453" y="138"/>
      <point x="354" y="0"/>
      <point x="201" y="0" type="curve" smooth="yes"/>
      <point x="189" y="0" type="line"/>
      <point x="189" y="93" type="line"/>
      <point x="201" y="93" type="line" smooth="yes"/>
      <point x="278" y="93"/>
      <point x="371" y="157"/>
      <point x="371" y="280" type="curve"/>
      <point x="371" y="437" type="line"/>
      <point x="31" y="437" type="line"/>
      <point x="31" y="530" type="line"/>
    </contour>
  </outline>
</glyph>
<glyph name="resh" format="2">
  <advance width="447"/>
  <unicode hex="05E8"/>
  <outline>
    <contour>
      <point x="395" y="0" type="line"/>
      <point x="313" y="0" type="line"/>
      <point x="313" y="305" type="line" smooth="yes"/>
      <point x="313" y="393"/>
      <point x="228" y="437"/>
      <point x="171" y="437" type="curve" smooth="yes"/>
      <point x="18" y="437" type="line"/>
      <point x="18" y="530" type="line"/>
      <point x="171" y="530" type="line" smooth="yes"/>
      <point x="296" y="530"/>
      <point x="395" y="428"/>
      <point x="395" y="305" type="curve" smooth="yes"/>
    </contour>
  </outline>
</glyph>
<glyph name="shin" format="2">
  <advance width="587"/>
  <unicode hex="05E9"/>
  <outline>
    <contour>
      <point x="535" y="530" type="line"/>
      <point x="535" y="262" type="line" smooth="yes"/>
      <point x="535" y="131"/>
      <point x="445" y="0"/>
      <point x="300" y="0" type="curve" smooth="yes"/>
      <point x="108" y="0" type="line"/>
      <point x="31" y="530" type="line"/>
      <point x="115" y="530" type="line"/>
      <point x="157" y="240" type="line"/>
      <point x="208" y="245"/>
      <point x="262" y="260"/>
      <point x="262" y="320" type="curve" smooth="yes"/>
      <point x="262" y="530" type="line"/>
      <point x="344" y="530" type="line"/>
      <point x="344" y="320" type="line" smooth="yes"/>
      <point x="344" y="212"/>
      <point x="272" y="160"/>
      <point x="170" y="148" type="curve"/>
      <point x="178" y="93" type="line"/>
      <point x="300" y="93" type="line"/>
      <point x="370" y="93"/>
      <point x="453" y="152"/>
      <point x="453" y="262" type="curve" smooth="yes"/>
      <point x="453" y="530" type="line"/>
    </contour>
  </outline>
  <guideline angle="0" x="0" y="-3980"/>
</glyph>
<glyph name="tav" format="2">
  <advance width="555"/>
  <unicode hex="05EA"/>
  <outline>
    <contour>
      <point x="503" y="305" type="curve" smooth="yes"/>
      <point x="503" y="0" type="line"/>
      <point x="421" y="0" type="line"/>
      <point x="421" y="305" type="line" smooth="yes"/>
      <point x="421" y="393"/>
      <point x="336" y="437"/>
      <point x="279" y="437" type="curve"/>
      <point x="176" y="437" type="line"/>
      <point x="176" y="0" type="line"/>
      <point x="18" y="0" type="line"/>
      <point x="18" y="93" type="line"/>
      <point x="94" y="93" type="line"/>
      <point x="94" y="437" type="line"/>
      <point x="40" y="437" type="line"/>
      <point x="40" y="530" type="line"/>
      <point x="279" y="530" type="line" smooth="yes"/>
      <point x="404" y="530"/>
      <point x="503" y="428"/>
    </contour>
  </outline>
</glyph>
<glyph name="endash" format="2">
  <advance width="395"/>
  <unicode hex="2013"/>
  <outline>
    <contour>
      <point x="378" y="327" type="line"/>
      <point x="18" y="327" type="line"/>
      <point x="18" y="420" type="line"/>
      <point x="378" y="420" type="line"/>
    </contour>
  </outline>
</glyph>
<glyph name="quoteleft" format="2">
  <advance width="204"/>
  <unicode hex="2018"/>
  <outline>
    <contour>
      <point x="81" y="637" type="line"/>
      <point x="187" y="637" type="line"/>
      <point x="162" y="605" type="line" smooth="yes"/>
      <point x="138" y="575"/>
      <point x="99" y="484"/>
      <point x="99" y="441" type="curve" smooth="yes"/>
      <point x="99" y="423" type="line"/>
      <point x="18" y="423" type="line"/>
      <point x="18" y="441" type="line"/>
      <point x="18" y="506"/>
      <point x="52" y="589"/>
      <point x="78" y="631" type="curve" smooth="yes"/>
    </contour>
  </outline>
</glyph>
<glyph name="quoteright" format="2">
  <advance width="205"/>
  <unicode hex="2019"/>
  <outline>
    <contour>
      <point x="124" y="423" type="line"/>
      <point x="18" y="423" type="line"/>
      <point x="43" y="454" type="line" smooth="yes"/>
      <point x="67" y="484"/>
      <point x="106" y="577"/>
      <point x="106" y="619" type="curve" smooth="yes"/>
      <point x="106" y="637" type="line"/>
      <point x="188" y="637" type="line"/>
      <point x="188" y="619" type="line"/>
      <point x="188" y="554"/>
      <point x="153" y="472"/>
      <point x="128" y="429" type="curve" smooth="yes"/>
    </contour>
  </outline>
</glyph>
<glyph name="quotesinglbase" format="2">
  <advance width="212"/>
  <unicode hex="201A"/>
  <outline>
    <contour>
      <point x="21" y="-81" type="line"/>
      <point x="46" y="-49" type="line" smooth="yes"/>
      <point x="70" y="-20"/>
      <point x="108" y="74"/>
      <point x="108" y="116" type="curve" smooth="yes"/>
      <point x="108" y="134" type="line"/>
      <point x="191" y="134" type="line"/>
      <point x="191" y="116" type="line"/>
      <point x="191" y="48"/>
      <point x="156" y="-30"/>
      <point x="131" y="-75" type="curve" smooth="yes"/>
      <point x="128" y="-81" type="line"/>
    </contour>
  </outline>
</glyph>
<glyph name="quotedblleft" format="2">
  <advance width="341"/>
  <unicode hex="201C"/>
  <outline>
    <contour>
      <point x="183" y="591" type="line"/>
      <point x="164" y="566" type="line" smooth="yes"/>
      <point x="138" y="534"/>
      <point x="100" y="439"/>
      <point x="100" y="395" type="curve" smooth="yes"/>
      <point x="100" y="380" type="line"/>
      <point x="18" y="380" type="line"/>
      <point x="18" y="395" type="line"/>
      <point x="18" y="458"/>
      <point x="50" y="536"/>
      <point x="77" y="584" type="curve" smooth="yes"/>
      <point x="81" y="591" type="line"/>
    </contour>
    <contour>
      <point x="324" y="591" type="line"/>
      <point x="306" y="566" type="line" smooth="yes"/>
      <point x="279" y="534"/>
      <point x="242" y="439"/>
      <point x="242" y="395" type="curve" smooth="yes"/>
      <point x="242" y="380" type="line"/>
      <point x="159" y="380" type="line"/>
      <point x="159" y="395" type="line"/>
      <point x="159" y="458"/>
      <point x="192" y="536"/>
      <point x="218" y="584" type="curve" smooth="yes"/>
      <point x="222" y="591" type="line"/>
    </contour>
  </outline>
</glyph>
<glyph name="quotedblright" format="2">
  <advance width="341"/>
  <unicode hex="201D"/>
  <outline>
    <contour>
      <point x="159" y="381" type="line"/>
      <point x="178" y="405" type="line" smooth="yes"/>
      <point x="204" y="438"/>
      <point x="242" y="532"/>
      <point x="242" y="576" type="curve" smooth="yes"/>
      <point x="242" y="590" type="line"/>
      <point x="324" y="590" type="line"/>
      <point x="324" y="576" type="line"/>
      <point x="324" y="513"/>
      <point x="292" y="436"/>
      <point x="265" y="387" type="curve" smooth="yes"/>
      <point x="262" y="381" type="line"/>
    </contour>
    <contour>
      <point x="18" y="381" type="line"/>
      <point x="37" y="405" type="line" smooth="yes"/>
      <point x="63" y="438"/>
      <point x="100" y="532"/>
      <point x="100" y="576" type="curve" smooth="yes"/>
      <point x="100" y="590" type="line"/>
      <point x="183" y="590" type="line"/>
      <point x="183" y="576" type="line"/>
      <point x="183" y="513"/>
      <point x="151" y="436"/>
      <point x="124" y="387" type="curve" smooth="yes"/>
      <point x="120" y="381" type="line"/>
    </contour>
  </outline>
</glyph>
<glyph name="quotedblbase" format="2">
  <advance width="342"/>
  <unicode hex="201E"/>
  <outline>
    <contour>
      <point x="160" y="-79" type="line"/>
      <point x="178" y="-54" type="line" smooth="yes"/>
      <point x="205" y="-22"/>
      <point x="242" y="73"/>
      <point x="242" y="117" type="curve" smooth="yes"/>
      <point x="242" y="132" type="line"/>
      <point x="325" y="132" type="line"/>
      <point x="325" y="117" type="line" smooth="yes"/>
      <point x="325" y="54"/>
      <point x="292" y="-24"/>
      <point x="266" y="-72" type="curve" smooth="yes"/>
      <point x="262" y="-79" type="line"/>
    </contour>
    <contour>
      <point x="18" y="-79" type="line"/>
      <point x="37" y="-54" type="line" smooth="yes"/>
      <point x="63" y="-22"/>
      <point x="101" y="73"/>
      <point x="101" y="117" type="curve" smooth="yes"/>
      <point x="101" y="132" type="line"/>
      <point x="183" y="132" type="line"/>
      <point x="183" y="117" type="line" smooth="yes"/>
      <point x="183" y="54"/>
      <point x="151" y="-24"/>
      <point x="124" y="-72" type="curve" smooth="yes"/>
      <point x="120" y="-79" type="line"/>
    </contour>
  </outline>
</glyph>
<glyph name="uni20AA" format="2">
  <advance width="546"/>
  <unicode hex="20AA"/>
  <outline>
    <contour>
      <point x="177" y="0" type="line"/>
      <point x="177" y="347" type="line"/>
      <point x="259" y="347" type="line"/>
      <point x="259" y="93" type="line"/>
      <point x="270" y="93" type="line"/>
      <point x="327" y="93"/>
      <point x="412" y="137"/>
      <point x="412" y="225" type="curve"/>
      <point x="412" y="530" type="line"/>
      <point x="494" y="530" type="line"/>
      <point x="494" y="225" type="line"/>
      <point x="494" y="103"/>
      <point x="396" y="0"/>
      <point x="270" y="0" type="curve" smooth="yes"/>
    </contour>
    <contour>
      <point x="142" y="0" type="line"/>
      <point x="59" y="0" type="line"/>
      <point x="59" y="530" type="line"/>
      <point x="153" y="530" type="line" smooth="yes"/>
      <point x="279" y="530"/>
      <point x="378" y="428"/>
      <point x="378" y="305" type="curve" smooth="yes"/>
      <point x="378" y="183" type="line"/>
      <point x="296" y="183" type="line"/>
      <point x="296" y="305" type="line" smooth="yes"/>
      <point x="296" y="393"/>
      <point x="211" y="437"/>
      <point x="153" y="437" type="curve"/>
      <point x="142" y="437" type="line"/>
    </contour>
  </outline>
</glyph>
<glyph name="Euro" format="2">
  <advance width="576"/>
  <unicode hex="20AC"/>
  <outline>
    <contour>
      <point x="545" y="200" type="line"/>
      <point x="539" y="176" type="line" smooth="yes"/>
      <point x="505" y="39"/>
      <point x="400" y="-5"/>
      <point x="316" y="-5" type="curve" smooth="yes"/>
      <point x="174" y="-5"/>
      <point x="76" y="125"/>
      <point x="76" y="263" type="curve" smooth="yes"/>
      <point x="76" y="399"/>
      <point x="171" y="535"/>
      <point x="316" y="535" type="curve" smooth="yes"/>
      <point x="400" y="535"/>
      <point x="504" y="489"/>
      <point x="539" y="355" type="curve" smooth="yes"/>
      <point x="545" y="330" type="line"/>
      <point x="460" y="330" type="line"/>
      <point x="456" y="340" type="line" smooth="yes"/>
      <point x="433" y="413"/>
      <point x="376" y="442"/>
      <point x="324" y="442" type="curve" smooth="yes"/>
      <point x="248" y="442"/>
      <point x="158" y="381"/>
      <point x="158" y="264" type="curve" smooth="yes"/>
      <point x="158" y="148"/>
      <point x="249" y="88"/>
      <point x="324" y="88" type="curve" smooth="yes"/>
      <point x="376" y="88"/>
      <point x="434" y="117"/>
      <point x="457" y="190" type="curve" smooth="yes"/>
      <point x="460" y="200" type="line"/>
    </contour>
    <contour>
      <point x="332" y="151" type="line"/>
      <point x="31" y="151" type="line"/>
      <point x="31" y="243" type="line"/>
      <point x="332" y="243" type="line"/>
    </contour>
    <contour>
      <point x="332" y="286" type="line"/>
      <point x="31" y="286" type="line"/>
      <point x="31" y="380" type="line"/>
      <point x="332" y="380" type="line"/>
    </contour>
  </outline>
</glyph>
